<?xml version="1.0" encoding="iso-8859-1"?>
<!-- Generator: Adobe Illustrator 19.0.0, SVG Export Plug-In . SVG Version: 6.00 Build 0)  -->
<svg version="1.1" id="illustration" xmlns="http://www.w3.org/2000/svg" xmlns:xlink="http://www.w3.org/1999/xlink" x="0px"
	 y="0px" viewBox="-408 234 462.177 367" style="enable-background:new -408 234 462.177 367;" xml:space="preserve">
<g>
	<g>
		<defs>
			<rect id="SVGID_1_" x="-473.233" y="201" width="600" height="400"/>
		</defs>
		<clipPath id="SVGID_2_">
			<use xlink:href="#SVGID_1_"  style="overflow:visible;"/>
		</clipPath>
		<rect x="-473.233" y="201" style="clip-path:url(#SVGID_2_);fill:#FFFFFF;" width="600" height="400"/>
	</g>
	<g>
		<defs>
			<rect id="SVGID_3_" x="-473.233" y="201" width="600" height="400"/>
		</defs>
		<clipPath id="SVGID_4_">
			<use xlink:href="#SVGID_3_"  style="overflow:visible;"/>
		</clipPath>
		<g style="clip-path:url(#SVGID_4_);">
			<path style="fill:#F1F1F4;" d="M-325.022,397.096c0.007-0.245,0.125-0.365,0.355-0.358l6.708,0.204
				c0.664,0.02,1.226,0.121,1.688,0.303s0.832,0.431,1.109,0.747c0.278,0.316,0.474,0.695,0.592,1.137
				c0.118,0.442,0.168,0.934,0.152,1.474l-0.056,1.842c-0.016,0.541-0.097,1.028-0.241,1.462c-0.144,0.435-0.363,0.802-0.66,1.1
				c-0.296,0.298-0.681,0.524-1.153,0.679c-0.472,0.153-1.039,0.22-1.703,0.2l-3.611-0.11l-0.748-2.112l-0.098-0.003l-0.063,2.088
				l-2.531-0.077L-325.022,397.096z M-322.681,403.426l4.287,0.131c0.483,0.015,0.832-0.081,1.042-0.288
				c0.212-0.207,0.325-0.581,0.341-1.121l0.045-1.499c0.017-0.557-0.073-0.939-0.272-1.146c-0.198-0.206-0.54-0.317-1.023-0.332
				l-4.104-0.125c-0.057-0.001-0.103,0.016-0.137,0.051c-0.034,0.036-0.051,0.079-0.053,0.127L-322.681,403.426z"/>
			<path style="fill:#F1F1F4;" d="M-310.787,400.935l-0.086-0.003l-0.081,2.678c-0.003,0.114,0.051,0.174,0.166,0.177l7.543,0.23
				l-0.07,2.321l-9.89-0.3c-0.238-0.008-0.353-0.134-0.345-0.379l0.249-8.207c0.007-0.245,0.129-0.364,0.368-0.358l9.606,0.292
				c0.246,0.007,0.365,0.134,0.358,0.379l-0.071,2.322l-2.373,0.801l-0.099-0.003l0.036-1.191c0.003-0.09-0.037-0.137-0.119-0.139
				l-5.073-0.154c-0.065-0.003-0.109,0.015-0.131,0.051c-0.021,0.037-0.032,0.076-0.034,0.116l-0.034,1.118l4.177,0.126
				l-0.056,1.819l-3.502-0.106L-310.787,400.935z"/>
			<path style="fill:#F1F1F4;" d="M-294.022,400.767l-0.099-0.003l0.03-0.983c0.003-0.098-0.044-0.149-0.143-0.152l-4.718-0.144
				c-0.172-0.005-0.292,0.028-0.36,0.1c-0.068,0.072-0.104,0.177-0.108,0.316l-0.007,0.221c-0.005,0.172,0.02,0.284,0.076,0.335
				s0.166,0.091,0.329,0.121l5.529,0.942c0.351,0.06,0.647,0.146,0.891,0.255c0.242,0.11,0.439,0.251,0.59,0.424
				c0.15,0.173,0.255,0.383,0.312,0.631c0.059,0.247,0.083,0.539,0.072,0.875l-0.021,0.712c-0.011,0.369-0.066,0.693-0.165,0.973
				c-0.099,0.28-0.254,0.513-0.464,0.699c-0.21,0.187-0.485,0.324-0.824,0.411c-0.339,0.088-0.754,0.125-1.245,0.11l-7.961-0.242
				l0.07-2.321l7.137,0.217c0.213,0.006,0.356-0.028,0.428-0.105c0.072-0.075,0.11-0.211,0.116-0.408l0.007-0.245
				c0.005-0.156-0.018-0.266-0.069-0.328c-0.052-0.062-0.155-0.105-0.309-0.127l-5.336-0.838c-0.359-0.061-0.666-0.144-0.921-0.25
				c-0.254-0.105-0.462-0.243-0.621-0.412c-0.159-0.169-0.272-0.373-0.337-0.613c-0.067-0.24-0.094-0.523-0.084-0.851l0.019-0.626
				c0.019-0.647,0.206-1.143,0.561-1.489c0.355-0.346,0.934-0.506,1.737-0.482l7.948,0.241c0.254,0.008,0.377,0.143,0.369,0.404
				l-0.056,1.843L-294.022,400.767z"/>
			<path style="fill:#F1F1F4;" d="M-290.662,406.722l0.271-8.943l2.531,0.077l-0.271,8.943L-290.662,406.722z"/>
			<path style="fill:#F1F1F4;" d="M-278.74,403.247c0.004-0.131,0.002-0.268-0.007-0.412c-0.008-0.144-0.018-0.269-0.031-0.376
				l0.003-0.11l2.506,0.076l-0.133,4.386c-0.007,0.229-0.113,0.341-0.317,0.335l-6.731-0.204c-0.664-0.021-1.227-0.122-1.688-0.304
				s-0.83-0.431-1.108-0.747c-0.277-0.315-0.476-0.694-0.593-1.137c-0.117-0.441-0.168-0.934-0.151-1.474l0.056-1.843
				c0.017-0.54,0.097-1.028,0.241-1.462s0.364-0.8,0.66-1.099c0.297-0.298,0.681-0.524,1.152-0.678
				c0.472-0.154,1.039-0.221,1.703-0.201l6.694,0.203c0.237,0.007,0.354,0.134,0.346,0.379l-0.059,1.929l-2.373,0.789l-0.099-0.003
				l0.026-0.86c0.003-0.082-0.032-0.124-0.106-0.126l-4.274-0.13c-0.245-0.007-0.453,0.009-0.622,0.049
				c-0.17,0.04-0.31,0.113-0.42,0.221c-0.109,0.107-0.192,0.253-0.246,0.435c-0.055,0.183-0.087,0.41-0.096,0.68l-0.047,1.573
				c-0.017,0.54,0.074,0.92,0.272,1.14c0.199,0.22,0.54,0.336,1.023,0.351l4.238,0.129c0.09,0.002,0.136-0.045,0.139-0.144
				L-278.74,403.247z"/>
			<path style="fill:#F1F1F4;" d="M-270.918,398.37c0.188,0.006,0.32,0.039,0.397,0.098c0.075,0.06,0.145,0.152,0.206,0.276
				l3.196,6.528c0.054,0.1,0.13,0.151,0.229,0.154l0.135,0.005c0.131,0.004,0.199-0.059,0.203-0.191l0.204-6.732l2.297,0.07
				l-0.261,8.588c-0.007,0.237-0.125,0.353-0.354,0.345l-3.638-0.11c-0.171-0.005-0.299-0.033-0.383-0.085
				c-0.085-0.052-0.162-0.147-0.232-0.29l-3.318-6.52c-0.046-0.1-0.123-0.151-0.229-0.154l-0.123-0.004
				c-0.131-0.004-0.198,0.06-0.202,0.191l-0.204,6.72l-2.298-0.07l0.261-8.575c0.008-0.245,0.125-0.365,0.355-0.357L-270.918,398.37
				z"/>
		</g>
	</g>
	<g>
		<defs>
			<rect id="SVGID_5_" x="-473.233" y="201" width="600" height="400"/>
		</defs>
		<clipPath id="SVGID_6_">
			<use xlink:href="#SVGID_5_"  style="overflow:visible;"/>
		</clipPath>
		<circle style="clip-path:url(#SVGID_6_);fill:#E0F3FF;" cx="-204.183" cy="396.53" r="155.018"/>
	</g>
	<g>
		<defs>
			<rect id="SVGID_7_" x="-473.233" y="201" width="600" height="400"/>
		</defs>
		<clipPath id="SVGID_8_">
			<use xlink:href="#SVGID_7_"  style="overflow:visible;"/>
		</clipPath>
		<g style="clip-path:url(#SVGID_8_);">
			
				<linearGradient id="SVGID_9_" gradientUnits="userSpaceOnUse" x1="-455.9894" y1="173.8083" x2="-455.9894" y2="244.9957" gradientTransform="matrix(0.906 -0.4233 -0.4233 -0.906 181.5992 409.3283)">
				<stop  offset="0" style="stop-color:#DBCCFF"/>
				<stop  offset="1" style="stop-color:#D1BBFF"/>
			</linearGradient>
			<path style="fill:url(#SVGID_9_);" d="M-318.136,386.609c-3.812-6.561-10.553-9.264-10.553-9.264l-2.351,1.098l5.294,9.604
				c-0.706,3.692-3.239,5.72-3.239,5.72l-0.007-0.016c0,0-3.181,0.641-6.465-1.186l-3.97-10.223l-2.351,1.098
				c0,0-2.253,6.904,0.333,14.038c0,0,1.003,2.314,1.176,2.516c0.932,1.087,3.361,2.342,8.056,2.051l16.204,30.912
				c-1.345,2.316-1.576,5.227-0.359,7.833c1.983,4.243,7.021,6.073,11.264,4.09c4.243-1.983,6.073-7.021,4.09-11.264
				c-1.218-2.606-3.598-4.296-6.237-4.751l-13.305-32.245c3.166-3.342,3.836-5.975,3.596-7.495
				C-317.011,388.804-318.136,386.609-318.136,386.609z M-304.808,439.919l-4.292,2.005l-3.882-2.713l0.41-4.719l4.292-2.006
				l3.882,2.713L-304.808,439.919z"/>
			
				<linearGradient id="SVGID_10_" gradientUnits="userSpaceOnUse" x1="-455.9945" y1="171.0315" x2="-455.9945" y2="242.2193" gradientTransform="matrix(0.906 -0.4233 -0.4233 -0.906 181.5992 409.3283)">
				<stop  offset="0" style="stop-color:#B5A6E7"/>
				<stop  offset="1" style="stop-color:#7760BF"/>
			</linearGradient>
			<path style="fill:url(#SVGID_10_);" d="M-316.96,389.125c-3.812-6.561-10.554-9.264-10.554-9.264l-2.351,1.098l5.293,9.604
				c-0.706,3.692-3.239,5.72-3.239,5.72l-0.007-0.016c0,0-3.181,0.641-6.465-1.186l-3.97-10.223l-2.351,1.098
				c0,0-2.253,6.904,0.333,14.039c0,0,3.665,4.912,9.231,4.567l16.204,30.912c-1.345,2.316-1.576,5.226-0.359,7.833
				c1.983,4.243,7.021,6.073,11.264,4.09s6.073-7.021,4.09-11.264c-1.217-2.606-3.598-4.296-6.237-4.751l-13.302-32.246
				C-315.544,395.087-316.96,389.125-316.96,389.125z M-303.633,442.435l-4.292,2.006l-3.882-2.713l0.41-4.719l4.292-2.006
				l3.882,2.713L-303.633,442.435z"/>
			
				<rect x="-341.403" y="382.852" transform="matrix(0.4233 0.906 -0.906 0.4233 151.948 529.5909)" style="fill:#E5E2FF;" width="2.777" height="2.594"/>
			
				<rect x="-330.663" y="377.855" transform="matrix(0.4233 0.906 -0.906 0.4233 153.6149 516.9788)" style="fill:#E5E2FF;" width="2.777" height="2.594"/>
			
				<rect x="-307.755" y="439.808" transform="matrix(0.4233 0.906 -0.906 0.4233 223.9256 532.5703)" style="fill:#E5E2FF;" width="2.777" height="4.738"/>
			<g>
				
					<linearGradient id="SVGID_11_" gradientUnits="userSpaceOnUse" x1="-455.9946" y1="188.7266" x2="-455.9946" y2="218.7339" gradientTransform="matrix(0.906 -0.4233 -0.4233 -0.906 181.5992 409.3283)">
					<stop  offset="0" style="stop-color:#B5A6E7"/>
					<stop  offset="1" style="stop-color:#7760BF"/>
				</linearGradient>
				<path style="fill:url(#SVGID_11_);" d="M-327.569,406.86l13.087,25.151c3.438,0.158,5.283-2.468,5.283-2.468l-10.654-26.288
					C-324.635,403.078-327.569,406.86-327.569,406.86z M-310.209,429.748c-0.383,0.331-0.963,0.767-1.694,1.109
					c-0.58,0.271-1.186,0.453-1.806,0.539l-13.106-24.634c0.642-0.566,1.738-1.409,3.15-2.068c1.059-0.495,2.141-0.81,3.24-0.955
					L-310.209,429.748z"/>
				<path style="fill:#E5E2FF;" d="M-310.209,429.748l1.01-0.205c0,0-1.499,2.665-5.283,2.468l0.773-0.615
					C-313.709,431.396-311.846,431.179-310.209,429.748z"/>
				
					<linearGradient id="SVGID_12_" gradientUnits="userSpaceOnUse" x1="-460.2529" y1="218.1339" x2="-451.7359" y2="218.1339" gradientTransform="matrix(0.906 -0.4233 -0.4233 -0.906 181.5992 409.3283)">
					<stop  offset="0" style="stop-color:#8B8BE0"/>
					<stop  offset="1" style="stop-color:#A177B7"/>
				</linearGradient>
				<path style="opacity:0.62;fill:url(#SVGID_12_);enable-background:new    ;" d="M-327.569,406.86l0.753-0.098
					c0,0,2.236-2.321,6.39-3.024l0.573-0.484c0,0-1.669-0.292-4.269,0.923C-326.722,405.393-327.569,406.86-327.569,406.86z"/>
			</g>
			
				<linearGradient id="SVGID_13_" gradientUnits="userSpaceOnUse" x1="-455.994" y1="216.1569" x2="-455.994" y2="221.3116" gradientTransform="matrix(0.906 -0.4233 -0.4233 -0.906 181.5992 409.3283)">
				<stop  offset="0" style="stop-color:#FFFFFF"/>
				<stop  offset="1" style="stop-color:#A177B7"/>
			</linearGradient>
			<path style="opacity:0.62;fill:url(#SVGID_13_);enable-background:new    ;" d="M-331.038,404.564c0,0,6.294-1.119,11.658-5.428
				l1.702,4.124c0,0-1.93-1.91-6.165-0.184c-4.954,2.019-4.683,6.004-4.683,6.004L-331.038,404.564z"/>
			
				<linearGradient id="SVGID_14_" gradientUnits="userSpaceOnUse" x1="-451.4897" y1="185.6642" x2="-451.4897" y2="218.7441" gradientTransform="matrix(0.906 -0.4233 -0.4233 -0.906 181.5992 409.3283)">
				<stop  offset="0" style="stop-color:#000000"/>
				<stop  offset="1" style="stop-color:#FFFFFF"/>
			</linearGradient>
			<path style="opacity:0.5;fill:url(#SVGID_14_);enable-background:new    ;" d="M-317.678,403.26
				c-1.207-0.867-2.59-0.894-2.59-0.894l12.666,30.595l1.527-1.577L-317.678,403.26z"/>
			<path style="fill:#FFFFFF;" d="M-317.678,403.26c0,0-1.329,4.088,2.487,6.027L-317.678,403.26z"/>
		</g>
	</g>
	<g>
		<defs>
			<rect id="SVGID_15_" x="-473.233" y="201" width="600" height="400"/>
		</defs>
		<clipPath id="SVGID_16_">
			<use xlink:href="#SVGID_15_"  style="overflow:visible;"/>
		</clipPath>
		<g style="clip-path:url(#SVGID_16_);">
			<g>
				
					<linearGradient id="SVGID_17_" gradientUnits="userSpaceOnUse" x1="-192.9332" y1="203" x2="-192.9332" y2="292.21" gradientTransform="matrix(1 0 0 -1 0 804)">
					<stop  offset="0" style="stop-color:#6456C0"/>
					<stop  offset="1" style="stop-color:#5F2C95"/>
				</linearGradient>
				<path style="fill:url(#SVGID_17_);" d="M-127.001,601h-47.002c-4.92-27.32-16.36-62.87-16.36-62.87
					c-2.78-1.65-8.21,0.38-8.21,0.38l-17.18,62.49h-42.94c-2.28-38.56,18.82-82.33,18.82-82.33l-0.01-0.01
					c-0.07-0.15-0.74-1.49-0.56-2.39c0.07-0.39,0.79-1.13,1.6-1.86c1.16-1.06,2.54-2.12,2.54-2.12l80.11-0.5
					c0,0,0.81,0.41,1.84,1.03h0.01c1.75,1.06,4.12,2.7,4.12,3.9c0,1.65-0.65,2.72-0.81,2.96l-0.04,0.05
					C-133.896,552.147-127.001,601-127.001,601z"/>
				
					<radialGradient id="SVGID_18_" cx="18.1953" cy="373.7185" r="27.0278" gradientTransform="matrix(0.6462 0.1491 0.3852 -1.6696 -392.0877 1190.1635)" gradientUnits="userSpaceOnUse">
					<stop  offset="0" style="stop-color:#4B474B"/>
					<stop  offset="1" style="stop-color:#000000"/>
				</radialGradient>
				<path style="opacity:0.5;fill:url(#SVGID_18_);enable-background:new    ;" d="M-218.908,572.946
					c-5.75,24.922-18.231,43.321-27.877,41.095c-9.646-2.225-12.804-24.233-7.054-49.155c5.75-24.922,18.231-43.321,27.877-41.095
					C-216.316,526.017-213.158,548.024-218.908,572.946z"/>
				
					<radialGradient id="SVGID_19_" cx="-18.4872" cy="273.0931" r="27.027" gradientTransform="matrix(0.6386 -0.179 -0.4623 -1.6499 -15.1156 1015.7336)" gradientUnits="userSpaceOnUse">
					<stop  offset="0" style="stop-color:#4B474B"/>
					<stop  offset="1" style="stop-color:#000000"/>
				</radialGradient>
				<path style="opacity:0.5;fill:url(#SVGID_19_);enable-background:new    ;" d="M-135.913,563.63
					c6.901,24.628,4.769,46.758-4.764,49.429c-9.532,2.671-22.854-15.128-29.755-39.756c-6.901-24.628-4.769-46.758,4.764-49.429
					C-156.136,521.203-142.814,539.003-135.913,563.63z"/>
				<g>
					
						<linearGradient id="SVGID_20_" gradientUnits="userSpaceOnUse" x1="-221.805" y1="234.3185" x2="-198.407" y2="234.3185" gradientTransform="matrix(1 0 0 -1 0 804)">
						<stop  offset="0" style="stop-color:#9E8CEF"/>
						<stop  offset="1" style="stop-color:#CAAFEE"/>
					</linearGradient>
					<path style="fill:url(#SVGID_20_);" d="M-221.312,601.042l-0.493-0.084c5.465-32.199,19.338-59.204,19.477-59.474l0.058-0.073
						l3.534-3.09l0.329,0.377l-3.498,3.058C-202.529,542.975-215.961,569.513-221.312,601.042z"/>
				</g>
				<g>
					
						<linearGradient id="SVGID_21_" gradientUnits="userSpaceOnUse" x1="-947.7078" y1="234.3175" x2="-924.3078" y2="234.3175" gradientTransform="matrix(-1 0 0 -1 -1114.8368 804)">
						<stop  offset="0" style="stop-color:#9E8CEF"/>
						<stop  offset="1" style="stop-color:#CAAFEE"/>
					</linearGradient>
					<path style="fill:url(#SVGID_21_);" d="M-167.622,601.042c-5.356-31.552-19.159-58.347-19.779-59.538l-3.128-2.808l0.334-0.373
						l3.216,2.908c0.143,0.271,14.384,27.526,19.85,59.727L-167.622,601.042z"/>
				</g>
				
					<linearGradient id="SVGID_22_" gradientUnits="userSpaceOnUse" x1="-196.073" y1="203" x2="-196.073" y2="292.21" gradientTransform="matrix(1 0 0 -1 0 804)">
					<stop  offset="0" style="stop-color:#CCCCFF"/>
					<stop  offset="1" style="stop-color:#755CBB"/>
				</linearGradient>
				<path style="opacity:0.76;fill:url(#SVGID_22_);enable-background:new    ;" d="M-150.223,516.72c0,1.65-0.65,2.72-0.81,2.96
					l-0.04,0.05c-16.68,3.77-29.37,19.34-29.37,19.34c9.09,17.44,24.25,61.93,24.25,61.93h-17.81
					c-4.92-27.32-16.36-62.87-16.36-62.87c-2.78-1.65-8.21,0.38-8.21,0.38l-17.18,62.49h-11.12c3.98-26.18,15.73-58.14,15.73-58.14
					c-11.55-13.45-28.73-24.19-28.73-24.19l-0.01-0.01l-2.04-1.28l1.48-1.11c7.43,7.13,31.39,16.44,32.13,16.73l-30.53-18.59
					c1.16-1.06,2.54-2.12,2.54-2.12l80.11-0.5c0,0,0.81,0.41,1.84,1.03l-21.88,12.04L-150.223,516.72z"/>
				
					<linearGradient id="SVGID_23_" gradientUnits="userSpaceOnUse" x1="-185.6875" y1="247.605" x2="-185.6875" y2="271.937" gradientTransform="matrix(1 0 0 -1 0 804)">
					<stop  offset="0" style="stop-color:#CCCCFF"/>
					<stop  offset="1" style="stop-color:#755CBB"/>
				</linearGradient>
				<polygon style="opacity:0.76;fill:url(#SVGID_23_);enable-background:new    ;" points="-190.363,538.13 -181.012,532.063 
					-183.233,538.13 -184.861,556.395 				"/>
				
					<linearGradient id="SVGID_24_" gradientUnits="userSpaceOnUse" x1="-213.8695" y1="256.552" x2="-213.8695" y2="280.391" gradientTransform="matrix(1 0 0 -1 0 804)">
					<stop  offset="0" style="stop-color:#CCCCFF"/>
					<stop  offset="1" style="stop-color:#755CBB"/>
				</linearGradient>
				<polygon style="opacity:0.76;fill:url(#SVGID_24_);enable-background:new    ;" points="-198.573,538.51 -208.313,533 
					-229.166,523.609 -202.612,541.158 -201.03,547.448 				"/>
			</g>
			<path style="fill:#FE9083;" d="M-171.773,350.65c0.06,0.43,0.11,0.66,0.11,0.66c-0.49,2.04-1.05,3.93-1.66,5.66
				c-1.96,5.63-4.4,9.63-6.23,12.12c-1.59,2.15-2.72,3.18-2.72,3.18c-14.59-4.58-21.78-18.85-24.54-25.95
				c-0.02-0.03-0.03-0.07-0.04-0.11c-0.53-1.34-0.88-2.42-1.1-3.12c0,0,0,0,0-0.01c-0.17-0.56-0.25-0.87-0.25-0.87
				c0.06-0.12,0.12-0.25,0.18-0.37l0.03-0.05c0.24-0.5,0.48-1.01,0.7-1.5c1.91-4.18,3.18-8.09,4-11.17
				c0.71-2.62,1.09-4.64,1.27-5.71c0.09-0.55,0.13-0.85,0.13-0.85l6.8,3.59l23.43,12.4c-0.35,2.15-0.49,4.17-0.5,5.94
				c-0.02,1.25,0.02,2.37,0.09,3.32c0.07,1.16,0.19,2.08,0.28,2.68v0.01C-171.793,350.56-171.783,350.6-171.773,350.65z"/>
			
				<linearGradient id="SVGID_25_" gradientUnits="userSpaceOnUse" x1="-189.6909" y1="426.55" x2="-189.6909" y2="462.16" gradientTransform="matrix(1 0 0 -1 0 804)">
				<stop  offset="0" style="stop-color:#D5CDF8"/>
				<stop  offset="1" style="stop-color:#F3EDFB"/>
			</linearGradient>
			<path style="fill:url(#SVGID_25_);" d="M-178.273,373.84c-1.35,1.34-2.94,2.54-4.84,3.54c-0.04,0.03-0.08,0.05-0.12,0.07
				c0,0-0.05-0.03-0.14-0.08l-0.01-0.01c-0.51-0.31-2.25-1.38-4.59-3.14c-6.12-4.61-16.34-13.93-19.26-26.49
				c-0.01-0.02-0.01-0.03-0.02-0.05c-0.34-1.49-0.58-3.01-0.7-4.59c0,0,0,0,0-0.01c-0.03-0.41-0.06-0.82-0.07-1.24
				c0,0,2.03,4.77,5.55,9.92c4.14,6.06,10.35,12.67,17.77,12.71c6.42,0.04,9.71-4.35,11.38-8.4c0.71-1.72,1.13-3.37,1.35-4.6
				c0.01-0.01,0.01-0.02,0.01-0.02c0.07-0.36,0.12-0.68,0.17-0.95v-0.01c0.02-0.14,0.04-0.26,0.05-0.37
				c0.06-0.45,0.08-0.71,0.08-0.71S-169.203,364.77-178.273,373.84z"/>
			
				<linearGradient id="SVGID_26_" gradientUnits="userSpaceOnUse" x1="-208.023" y1="444.39" x2="-171.3587" y2="444.39" gradientTransform="matrix(1 0 0 -1 0 804)">
				<stop  offset="0" style="stop-color:#CCCCFF"/>
				<stop  offset="1" style="stop-color:#755CBB"/>
			</linearGradient>
			<path style="opacity:0.5;fill:url(#SVGID_26_);enable-background:new    ;" d="M-178.273,373.84c-1.35,1.34-2.94,2.54-4.84,3.54
				h-0.12l-0.14-0.01l-0.01-0.01c-0.51-0.31-2.25-1.38-4.59-3.14c-6.12-4.61-16.34-13.93-19.26-26.49
				c-0.01-0.02-0.01-0.03-0.02-0.05c-0.34-1.49-0.58-3.01-0.7-4.59c0,0,0,0,0-0.01c-0.03-0.41-0.06-0.82-0.07-1.24
				c0,0,2.03,4.77,5.55,9.92c0,0,4.04,11.1,12.78,16.6c4.38,2.75,7.7,2.35,10.14,0.73c2.44-1.61,4.02-4.42,4.95-6.54
				c0.93-2.13,1.23-4.12,1.28-5.58c0.01-0.33,0.01-0.63,0-0.9c0.71-1.72,1.13-3.37,1.35-4.6c0.01-0.01,0.01-0.02,0.01-0.02
				c0.07-0.36,0.12-0.68,0.17-0.95v-0.01c0.02-0.14,0.04-0.26,0.05-0.37c0.06-0.45,0.08-0.71,0.08-0.71
				S-169.203,364.77-178.273,373.84z"/>
			
				<linearGradient id="SVGID_27_" gradientUnits="userSpaceOnUse" x1="-200.1748" y1="284.2708" x2="-200.1748" y2="463.7101" gradientTransform="matrix(1 0 0 -1 0 804)">
				<stop  offset="0" style="stop-color:#9E8CEF"/>
				<stop  offset="1" style="stop-color:#CAAFEE"/>
			</linearGradient>
			<path style="fill:url(#SVGID_27_);" d="M-122.113,464.53c-0.11,0.05-0.16,0.08-0.16,0.08c-0.82,0.1-3.37-0.46-6.71-3.35
				l-0.01-0.01c0-0.01-0.01-0.02-0.03-0.03c-0.01-0.01-0.02-0.03-0.04-0.04c-2.8-2.45-6.16-6.54-9.51-13.24
				c-6.7-13.39-8.62-22.33-8.93-23.89l-0.04-0.24l-3.91,6.2c-2.65,7.97-7.67,40.95-7.58,42.37c0.09,1.42,4.45,8.34,4.36,9.19
				c0,0,0,0.01-0.01,0.02c-0.12,0.86-2.08,2.75-2.64,4.81c-0.38,1.37,2.28,5.69,4.15,8.92v0.01c0.97,1.68,1.72,3.06,1.72,3.58
				c0,1.51-4.74,8.9-4.74,8.9v3.98l-0.07,0.07l-0.22,0.2l-0.18,0.15c-1.8,1.42-9.43,6.07-33.27,7.35
				c-28.25,1.51-47.07-7.58-47.07-7.58l1.42-3.89c0,0-1.32-1.13-1.42-1.7c-0.09-0.57,1.04-1.9,1.04-1.9s-2.84-1.51-2.84-3.41
				c0-1.89,5.69-7.76,5.5-12.79c-0.19-5.02-4.55-9.47-5.12-12.31c-0.57-2.84,7.39-9.85,7.39-9.85c-6.82-21.6-8.15-50.59-8.15-50.59
				l-1.32-1.52c0,0-8.15,18.57-15.54,27.66c-0.88,1.08-1.81,2.15-2.77,3.18c-2.06,2.23-4.25,4.32-6.36,6.15
				c-5.12,4.46-9.77,7.39-10.95,7.16c-1.9-0.38-9.48-15.35-9.13-30.7c0.16-7.3,4.56-15.47,9.13-22.02c0.49-0.7,0.98-1.39,1.48-2.06
				c3.24-4.41,6.35-7.87,7.84-9.45c0.58-0.62,0.91-0.95,0.91-0.95s-1.04-3.35-1.75-6.26c-0.01-0.07-0.03-0.14-0.05-0.21
				c0-0.03-0.01-0.07-0.02-0.1c-0.01-0.05-0.02-0.07-0.02-0.07c-0.42-1.79-0.68-3.34-0.44-3.72c0.63-1.01,4.3-2.15,4.93-2.9
				c0.63-0.76,3.28-13.52,5.3-14.91c1.94-1.33,5.35-2.3,16.72-6.77c0.56-0.22,1.13-0.44,1.73-0.68
				c12.75-5.05,25.26-11.18,25.26-11.18l4.8-5.9h2.14l-0.7,1.5l-0.03,0.05c0.34,1.52,0.73,2.98,1.17,4.37
				c0.01,0.04,0.02,0.08,0.04,0.11c6.6,20.82,23.58,27.53,23.58,27.53c11.8-8.71,11.57-22.54,11.57-22.54v-1.9l2.21,0.66l1.51,3.6
				c0,0,2.56,3.98,12.7,8.44c1.75,0.77,3.63,1.74,5.57,2.85c9.28,5.27,19.6,13.42,20.39,15.15c0.08,0.18,0.17,0.46,0.27,0.86v0.01
				c1.09,4.28,3.33,20.31,5.41,26.03c1.3,3.57,3.35,5.54,4.86,6.56c0.01,0.01,0.01,0.01,0.02,0.01c1.12,0.77,1.94,1.01,1.94,1.01
				c0.16,0.88,0.31,1.75,0.45,2.61C-111.983,444.62-120.253,463.23-122.113,464.53z"/>
			
				<linearGradient id="SVGID_28_" gradientUnits="userSpaceOnUse" x1="-274.643" y1="396.085" x2="-230.943" y2="396.085" gradientTransform="matrix(1 0 0 -1 0 804)">
				<stop  offset="0" style="stop-color:#CCCCFF"/>
				<stop  offset="1" style="stop-color:#755CBB"/>
			</linearGradient>
			<path style="opacity:0.5;fill:url(#SVGID_28_);enable-background:new    ;" d="M-230.943,412.77l-8.24,2.77l-1.32-1.52
				c0,0-8.15,18.57-15.54,27.66c-0.88,1.08-1.81,2.15-2.77,3.18c-2.06,2.23-4.25,4.32-6.36,6.15l-6.28-27.07l-3.19-20.55
				c3.24-4.41,6.35-7.87,7.84-9.45c0.58-0.62,0.91-0.95,0.91-0.95s-1.04-3.35-1.75-6.26c-0.01-0.07-0.03-0.14-0.05-0.21
				c0-0.03-0.01-0.07-0.02-0.1c-0.01-0.05-0.02-0.07-0.02-0.07c-0.42-1.79-0.68-3.34-0.44-3.72c0.63-1.01,4.3-2.15,4.93-2.9
				c0.63-0.76,3.28-13.52,5.3-14.91c0,0-1.32,12.25,5.69,27.79l3.41,4.8l9.98,8.02C-238.863,405.43-235.073,410.46-230.943,412.77z"
				/>
			
				<linearGradient id="SVGID_29_" gradientUnits="userSpaceOnUse" x1="-275.9946" y1="345.83" x2="-275.9946" y2="429.74" gradientTransform="matrix(1 0 0 -1 0 804)">
				<stop  offset="0" style="stop-color:#9E8CEF"/>
				<stop  offset="1" style="stop-color:#DAC7F3"/>
			</linearGradient>
			<path style="fill:url(#SVGID_29_);" d="M-254.783,434.93c-1.77,13.13-21.34,23.24-21.34,23.24c-4.36,0-9.23-7.58-13.65-16.93
				c-4.42-9.35-4.69-36.21-4.92-37.87c-0.24-1.66-2.7-4.98-2.85-6.4c-0.14-1.42,3.98-4.36,3.98-4.36l-0.03-0.07l-0.03-0.07
				c-0.43-0.92-2.85-6.11-2.68-7.06c0.19-1.04,4.82-3.31,4.82-3.31l0.29,5.11c0,0,10.78-2.04,14.43-10.39l0.64-2.56l1.8,1.2v10.99
				c0,0,0.37,1.71,0.94,1.71s4.77-2.1,5.65-1.81c0.89,0.29,1.76,6.17,2.94,6.92c1.17,0.76,4.3,2.94,4.77,3.98
				c0.21,0.47,0.23,2.16,0.25,4.15c0.03,2.44,0.05,5.32,0.41,6.94C-258.693,411.27-253.013,421.79-254.783,434.93z"/>
			
				<linearGradient id="SVGID_30_" gradientUnits="userSpaceOnUse" x1="-131.7029" y1="370.0139" x2="-75.3975" y2="370.0139" gradientTransform="matrix(1 0 0 -1 0 804)">
				<stop  offset="0" style="stop-color:#A999F1"/>
				<stop  offset="1" style="stop-color:#DAC7F3"/>
			</linearGradient>
			<path style="fill:url(#SVGID_30_);" d="M-75.793,423.68c-0.88,1.39-5.3,4.3-6.44,5.44c-1.14,1.13,0,4.87,0,4.87
				c-18.57,19.71-37.93,29.58-39.88,30.54c-0.11,0.05-0.16,0.08-0.16,0.08c-11.66-7.84-10.66-20.75-6.79-31.63
				c3.7-10.44,10.04-19.01,10.32-19.38l0.01-0.01c0,0,0,0,0.01-0.01c0.21-0.08,3.54-1.46,5.92-1.64c0.79-0.06,1.51,0.25,2.19,0.68
				c1.42,0.88,2.62,2.27,3.78,1.69c1.71-0.86,5.53-9.89,8.12-10.14c1.81-0.17,4.32,1.67,5.99,2.72c0.73,0.46,1.3,0.77,1.58,0.69
				c0.95-0.25,4.17-4.11,4.43-4.21c0.25-0.11,1.72,0.97,1.72,0.97l-1.03,1.28c1.58,9.1,6.76,15.22,6.76,15.22l3.47-5.08
				C-75.793,415.76-74.903,422.29-75.793,423.68z"/>
			<path style="fill:#CB4D7A;" d="M-171.723,350.26c-0.02,0.13-0.04,0.26-0.05,0.39c-0.05,0.27-0.11,0.53-0.19,0.8
				c0,0,0,0.01-0.01,0.02c-1.19,4.41-6,8.92-12.07,6.75c-6.63-2.37-19.25-29.1-19.25-29.1l1.27-5.71l29.95,24.4l0.33,2.31
				L-171.723,350.26z"/>
			<g>
				<path style="fill:#EE8183;" d="M-271.454,345.368c0,0-1.831-10.105-1.01-17.558s-0.212-15.916-0.212-15.916
					s-1.809-0.758-3.136,0c-1.326,0.758-4.421,8.463-3.032,14.653c1.389,6.189,0.316,21.032,0.316,21.032h-2.084l-4.547-6.253
					l-2.21-0.632c0,0-12.726,12-12.537,19.137l1.663,6.347l15.674-0.537l10.231-11.684L-271.454,345.368z"/>
				
					<linearGradient id="SVGID_31_" gradientUnits="userSpaceOnUse" x1="-294.3095" y1="441.1812" x2="-294.3095" y2="463.3058" gradientTransform="matrix(1 0 0 -1 0 804)">
					<stop  offset="0.016" style="stop-color:#FFC2A9"/>
					<stop  offset="1" style="stop-color:#FF9595"/>
				</linearGradient>
				<path style="fill:url(#SVGID_31_);" d="M-287.37,340.695c0,0,0.329,7.958,2.115,14.779c0,0-0.299,2.795-3.567,2.984l-0.805-0.9
					c0,0-0.568,3.174-3.458,3.41l-2.747-2.747l0.71,2.274c0,0-0.995,2.416-3.6,2.321c0,0-4.358-3.41-4.642-7.863l4.308-3.647v-2.795
					l5.118-3.6l0.095-2.037C-293.843,342.874-290.843,340.647-287.37,340.695z"/>
				
					<linearGradient id="SVGID_32_" gradientUnits="userSpaceOnUse" x1="-280.3785" y1="441.707" x2="-280.3785" y2="478.328" gradientTransform="matrix(1 0 0 -1 0 804)">
					<stop  offset="0" style="stop-color:#FFEADB"/>
					<stop  offset="0.9944" style="stop-color:#C27CB6"/>
				</linearGradient>
				<path style="opacity:0.6;fill:url(#SVGID_32_);enable-background:new    ;" d="M-272.281,325.672c0,0-0.767,1.95-1.857,2.707
					c-1.089,0.758-4.246,1.338-4.246,1.338l-0.143,17.862h-2.084l-4.547-6.253c0,0,2.305,3.568,2.447,6.253l-1.8,0.884l-1.563-5.353
					l-0.741,3.852l0.736,4.793c0,0,2.696-2.32,7.575-2.415l0.734,1.332c0,0-8.826,7.311-10.863,11.621
					c0,0,4.358-5.542,14.305-11.653l0.947-2.937l1.257-7.011C-272.123,340.694-273.314,330.59-272.281,325.672z"/>
				
					<linearGradient id="SVGID_33_" gradientUnits="userSpaceOnUse" x1="-281.5662" y1="416.79" x2="-281.5662" y2="473.25" gradientTransform="matrix(1 0 0 -1 0 804)">
					<stop  offset="0.016" style="stop-color:#FFC2A9"/>
					<stop  offset="1" style="stop-color:#FF9595"/>
				</linearGradient>
				<path style="fill:url(#SVGID_33_);" d="M-264.883,356.8c-0.82,2.46-9.41,12.69-10.36,14.91c-0.95,2.21-1.52,5.11-1.52,5.11
					c-4.22,9.13-14.43,10.39-14.43,10.39l-0.47-8.24c0,0-5.49-3.16-6.42-4.89l-0.01-0.03l-0.11-0.29c-0.28-1.61-0.04-7.58-0.04-7.58
					l9.61-3.89c4.17-5.4,14.31-11.65,14.31-11.65l0.47-2.83c-7.28-3.58-6.06-14.41-4.83-15.74c1.23-1.32,3.5-1.32,3.5-1.32
					s2.66,8.71,4.36,12.79C-269.113,347.61-264.063,354.34-264.883,356.8z"/>
				<path style="fill:#E28183;" d="M-293.843,342.874c0,0,1.074,9.947,4.216,14.684c0,0-3.995-4.958-4.311-12.647L-293.843,342.874z
					"/>
				<path style="fill:#E28183;" d="M-299.056,348.51c0,0,1.044,8.005,5.971,12.458c0,0-4.362-2.179-5.971-9.663V348.51z"/>
				
					<linearGradient id="SVGID_34_" gradientUnits="userSpaceOnUse" x1="-291.663" y1="425.6005" x2="-273.911" y2="425.6005" gradientTransform="matrix(1 0 0 -1 0 804)">
					<stop  offset="0.016" style="stop-color:#D1A1D6"/>
					<stop  offset="0.9944" style="stop-color:#BD89C4"/>
				</linearGradient>
				<path style="opacity:0.91;fill:url(#SVGID_34_);enable-background:new    ;" d="M-273.911,369.589
					c0,0-10.835,10.52-17.752,9.381l0.47,8.24c0,0,11.37-0.994,15.065-12.955C-276.127,374.255-274.797,370.818-273.911,369.589z"/>
			</g>
			<g>
				
					<linearGradient id="SVGID_35_" gradientUnits="userSpaceOnUse" x1="-74.2369" y1="382.4" x2="-74.2369" y2="457.9012" gradientTransform="matrix(1 0 0 -1 0 804)">
					<stop  offset="0.016" style="stop-color:#FFC2A9"/>
					<stop  offset="1" style="stop-color:#FF9595"/>
				</linearGradient>
				<path style="fill:url(#SVGID_35_);" d="M-44.873,383.89c0,0-9.95,18.19-21.6,23.78h-3.98l-9.19,13.93c0,0-5.94-3.73-6.38-15.98
					c0,0,2.08-2.17,2.59-4.62c0,0-3.28-2.58-4.17-4.47c-0.88-1.9-1.2-7.58-1.83-9.92s-6-7.2-7.2-7.83s-6.63-0.95-6.63-0.95
					s-0.76-1.96,0-2.9c0.76-0.95,9.22-4.24,13.83-1.08c0,0,0.32,2.4,0.82,3.67c0.51,1.26,4.55,5.74,5.18,5.74s3.35-2.27,4.55-4.04
					c1.15-1.7,7.26-14.87,8.74-19.32c0.01-0.05,0.02-0.09,0.04-0.13c0.02-0.07,0.05-0.14,0.06-0.2c0.02-0.05,0.03-0.09,0.04-0.13
					c0.01-0.02,0.02-0.03,0.02-0.05c1.14-3.85,7.77-11.24,11.31-13.26c0,0,1.51-0.38,2.33,1.51c0,0-2.84,8.09-5.81,12.89
					c-0.5,0.81-1.04,1.76-1.6,2.78c0,0,0,0-0.01,0c-2.53,4.65-5.38,10.74-5.79,11.63l-0.05,0.11l1.58,0.81l4.27-4.05l4.38-4.15
					l10.05,10.61l-0.99,1.26l-3.14,4.03l1.59,0.29l3.7-4.09L-44.873,383.89z"/>
				
					<linearGradient id="SVGID_36_" gradientUnits="userSpaceOnUse" x1="-65.317" y1="406.59" x2="-65.317" y2="444.1" gradientTransform="matrix(1 0 0 -1 0 804)">
					<stop  offset="0" style="stop-color:#FFEADB"/>
					<stop  offset="0.9944" style="stop-color:#C27CB6"/>
				</linearGradient>
				<path style="opacity:0.6;fill:url(#SVGID_36_);enable-background:new    ;" d="M-47.201,387.757l-3.179,4.672
					c0,0-17.453-13.459-21.243-14.599c-3.79-1.14-5.18-0.38-5.18-0.38l-3.91,4.99c0,0,7.2,6.38,7.83,14.97
					c0,0-2.4-10.86-10.55-14.15c0.63,0,3.35-2.27,4.55-4.04c1.15-1.7,7.26-14.87,8.74-19.32c-0.2,0.76-0.46,2.24,0.16,3.41
					c0.86,1.59,5.92,0.09,6.22,0c0.01,0,0.01,0,0.01,0l-5.8,11.63l-0.05,0.11l1.58,0.81l4.27-4.05l-2.14,4.97l15.58,2.75l-3.14,4.03
					l1.59,0.29L-47.201,387.757z"/>
				
					<linearGradient id="SVGID_37_" gradientUnits="userSpaceOnUse" x1="-57.9174" y1="419.537" x2="-57.9174" y2="436.352" gradientTransform="matrix(1 0 0 -1 0 804)">
					<stop  offset="0" style="stop-color:#FFB0B0"/>
					<stop  offset="0.984" style="stop-color:#FFC2A9"/>
				</linearGradient>
				<path style="fill:url(#SVGID_37_);" d="M-59.37,367.663c0,0,3.031-0.442,4.989,3.474l-0.442,1.263c0,0,2.955,0.579,5.811,5.368
					c0,0-2.526,4.611-8.779,6.695c0,0-2.905-0.821-3.41-3.284l0.568-1.579l-2.274,1.705c0,0-2.716,0.821-3.916-3.221L-59.37,367.663
					z"/>
				
					<linearGradient id="SVGID_38_" gradientUnits="userSpaceOnUse" x1="-48.164" y1="416.947" x2="-48.164" y2="426.168" gradientTransform="matrix(1 0 0 -1 0 804)">
					<stop  offset="0" style="stop-color:#FFB0B0"/>
					<stop  offset="0.984" style="stop-color:#FFC2A9"/>
				</linearGradient>
				<path style="fill:url(#SVGID_38_);" d="M-43.959,382.632c0,0,0.632-2.905-2.463-4.8l-6,6.632c0,0,0.182,2.126,2.779,2.589
					C-49.643,387.053-45.538,385.663-43.959,382.632z"/>
				
					<linearGradient id="SVGID_39_" gradientUnits="userSpaceOnUse" x1="-87.603" y1="398.569" x2="-70.453" y2="398.569" gradientTransform="matrix(1 0 0 -1 0 804)">
					<stop  offset="0.016" style="stop-color:#D1A1D6"/>
					<stop  offset="0.9944" style="stop-color:#BD89C4"/>
				</linearGradient>
				<path style="opacity:0.91;fill:url(#SVGID_39_);enable-background:new    ;" d="M-87.603,396.53c0,0,6.951,7.757,17.15,11.14
					l-4.395,6.662l-9.172-11.647l0.588-1.685C-83.433,401-87.1,398.242-87.603,396.53z"/>
				<path style="fill:#E28183;" d="M-54.822,372.4c0,0-2.905,4.8-5.81,7.2l-0.568,1.579c0,0,5.639-3.806,7.714-8.203
					C-53.487,372.976-54.159,372.495-54.822,372.4z"/>
			</g>
			
				<linearGradient id="SVGID_40_" gradientUnits="userSpaceOnUse" x1="-111.4702" y1="339.3788" x2="-111.4702" y2="423.89" gradientTransform="matrix(1 0 0 -1 0 804)">
				<stop  offset="0" style="stop-color:#CCCCFF"/>
				<stop  offset="1" style="stop-color:#755CBB"/>
			</linearGradient>
			<path style="opacity:0.5;fill:url(#SVGID_40_);enable-background:new    ;" d="M-75.793,423.68c-0.88,1.39-5.3,4.3-6.44,5.44
				c-1.14,1.13,0,4.87,0,4.87c-18.57,19.71-37.93,29.58-39.88,30.54c-0.11,0.05-0.16,0.08-0.16,0.08
				c-1.52,0.19-8.91-1.89-16.3-16.67c-6.7-13.39-8.62-22.33-8.93-23.89l-0.04-0.24l1.63-2.21l2.42-27.28l1.7,5.49
				c6.44-7.77,12.51-19.7,12.51-19.7l0.27,0.86v0.01c1.09,4.28,3.33,20.31,5.41,26.03c1.3,3.57,3.35,5.54,4.86,6.56l0.01,0.02
				l-0.01,0.01c-5.93,5.41-8.87,13.19-10.32,19.38c-1.33,5.68-1.42,10.03-1.42,10.03s1.64-7.7,6.82-16.96
				c1.88-3.37,4.62-6.38,7.33-8.85c2.04-1.86,4.07-3.42,5.72-4.58c1.42,0.88,2.62,2.27,3.78,1.69c-7.8,11.71-7.61,34.89-0.28,30.47
				c7.32-4.42,8.996-13.801,8.996-13.801c-1.73-11.43-1.214-24.322,0.176-26.771c1.687,0.056,6.518,3.453,6.798,3.373
				c-0.44,13.45,5.88,22.43,5.88,22.43l4.17-6.45c-6.07-10.23-5.62-20.19-5.62-20.19c0.25-0.11,1.72,0.97,1.72,0.97l-1.03,1.28
				c1.58,9.1,6.76,15.22,6.76,15.22l3.47-5.08C-75.793,415.76-74.903,422.29-75.793,423.68z"/>
			
				<linearGradient id="SVGID_41_" gradientUnits="userSpaceOnUse" x1="-297.543" y1="356.4053" x2="-156.193" y2="356.4053" gradientTransform="matrix(1 0 0 -1 0 804)">
				<stop  offset="0" style="stop-color:#CCCCFF"/>
				<stop  offset="1" style="stop-color:#755CBB"/>
			</linearGradient>
			<path style="opacity:0.5;fill:url(#SVGID_41_);enable-background:new    ;" d="M-156.193,507.81v3.98l-0.07,0.07l-0.22,0.2
				l-0.18,0.15c-1.8,1.42-9.43,6.07-33.27,7.35c-28.25,1.51-47.07-7.58-47.07-7.58l1.42-3.89c0,0-1.32-1.13-1.42-1.7
				c-0.09-0.57,1.04-1.9,1.04-1.9s-2.84-1.51-2.84-3.41c0-1.71,4.64-6.66,5.39-11.31c0.09-0.5,0.13-0.99,0.11-1.48
				c-0.19-5-4.51-9.43-5.11-12.27c-0.01-0.03-0.01-0.04-0.01-0.04c-0.57-2.84,7.39-9.85,7.39-9.85c-6.82-21.6-8.15-50.59-8.15-50.59
				l-1.32-1.52c0,0-8.15,18.57-15.54,27.66c-7.39,9.1-18.19,16.87-20.08,16.49c-4.36,0-9.23-7.58-13.65-16.93
				s-4.69-36.21-4.92-37.87c-0.24-1.66-2.7-4.98-2.85-6.4c4.74,8.15,12.29,5.75,12.29,5.75c-5.47,0.12-8.31-10.11-8.31-10.11
				l-0.03-0.07l-0.03-0.07l-2.67-7.05c0.3,0.34,6.55,7.33,12.59,3.02c6.19-4.42,9.38-12.98,9.38-12.98v10.99
				c0,0,0.37,1.71,0.94,1.71c-0.37,5.06-1.44,11.22-2.74,17.29c-2.81,13.13-6.66,25.81-6.66,25.81s10.44-5.68,14.11-20.08
				c1.75-6.89,2.04-12.88,1.87-17.24c-0.15-3.73-0.64-6.28-0.84-7.21c-0.01-0.07-0.03-0.14-0.05-0.21c0-0.03-0.01-0.07-0.02-0.1
				c0-0.02-0.01-0.04-0.01-0.05l1.01,2.14l1.92,4.76c2.23,18.48-2.37,46.33-2.37,46.33c6.7-8.34,8.09-26.78,7.8-31.26
				c-0.13-2.14-0.3-4.78-0.41-6.94c-0.15-2.36-0.25-4.15-0.25-4.15l13.71,8.18l-2.53-8.02l9.98,8.02c0,0,8.97,10.8,18.19,12.06
				c9.22,1.27,43.07,0.51,43.07,0.51s-29.43,1.89-38.02,4.42c-8.59,2.53-10.23,5.43-10.23,5.43c6.21,31.59,40.58,42.24,41.65,42.56
				c-31.18-4.68-45.69-31.19-45.69-31.19s-0.51,14.91,1.89,20.59s16.55,19.58,34.74,22.48c1.53,0.24,3.04,0.39,4.53,0.46
				c15.34,0.72,28.04-7.12,29.34-7.96c0.07-0.05,0.11-0.07,0.11-0.07s-0.01,0.02-0.03,0.05c-0.49,0.75-6.78,9.59-32.18,10.56
				c-1.54,0.06-3.04,0.05-4.5-0.01c-0.01,0-0.02,0-0.02,0c-23.54-0.99-35.53-16.67-35.53-16.67s-8.71,4.68-3.15,11.62
				c0.06,0.07,0.12,0.15,0.18,0.22c1.64,1.89,5.25,4.2,9.52,6.58c0.12,0.07,0.24,0.14,0.35,0.2c5.16,2.85,11.21,5.79,15.89,8.22
				c0.03,0.01,0.05,0.02,0.07,0.03c2.86,1.49,5.21,2.77,6.52,3.73c0.01,0,0.01,0.01,0.01,0.01c1.32,0.96,1.59,1.58,0.3,1.73
				c-6.57,0.76-31.45-4.67-32.46-3.16c-1.01,1.52,1.23,5.43,1.23,5.43c22.84,11.32,71.71,5.74,73.25,5.57
				c-40.9,10.47-74.36-2.79-74.36-2.79l1.11,3.92c0,0,18.22,6.31,39.69,6.82c21.48,0.5,34.87-4.99,34.87-4.99L-156.193,507.81z"/>
			
				<linearGradient id="SVGID_42_" gradientUnits="userSpaceOnUse" x1="-172.927" y1="380.0585" x2="-145.909" y2="380.0585" gradientTransform="matrix(1 0 0 -1 0 804)">
				<stop  offset="0" style="stop-color:#CCEDFF"/>
				<stop  offset="1" style="stop-color:#755CBB"/>
			</linearGradient>
			<path style="opacity:0.5;fill:url(#SVGID_42_);enable-background:new    ;" d="M-172.927,417.874c0,0,16.268,0.884,27.018,3.726
				l-5.544,8.409C-151.454,430.009-159.791,422.674-172.927,417.874z"/>
			
				<linearGradient id="SVGID_43_" gradientUnits="userSpaceOnUse" x1="-197.433" y1="332.6415" x2="-157.727" y2="332.6415" gradientTransform="matrix(1 0 0 -1 0 804)">
				<stop  offset="0" style="stop-color:#CCEDFF"/>
				<stop  offset="1" style="stop-color:#755CBB"/>
			</linearGradient>
			<path style="opacity:0.5;fill:url(#SVGID_43_);enable-background:new    ;" d="M-157.727,462.713c0,0-10.148,8.466-20.127,12.382
				s-19.579,4.295-19.579,4.295s5.737,1.705,19.853-0.568c14.116-2.274,18.946-9.919,18.946-9.919L-157.727,462.713z"/>
			
				<linearGradient id="SVGID_44_" gradientUnits="userSpaceOnUse" x1="-195.5943" y1="314.6882" x2="-153.173" y2="314.6882" gradientTransform="matrix(1 0 0 -1 0 804)">
				<stop  offset="0" style="stop-color:#CCEDFF"/>
				<stop  offset="1" style="stop-color:#755CBB"/>
			</linearGradient>
			<path style="opacity:0.5;fill:url(#SVGID_44_);enable-background:new    ;" d="M-153.173,495.32v0.01
				c-18.78,4.85-42.62-2.11-42.42-2.96s6.53,0.38,21.21-2.56c14.23-2.85,19.39-7.91,19.7-8.22c-0.12,0.86-2.08,2.75-2.64,4.81
				C-157.703,487.77-155.043,492.09-153.173,495.32z"/>
			
				<linearGradient id="SVGID_45_" gradientUnits="userSpaceOnUse" x1="-232.103" y1="359.14" x2="-232.103" y2="406.75" gradientTransform="matrix(1 0 0 -1 0 804)">
				<stop  offset="0" style="stop-color:#CCEDFF"/>
				<stop  offset="1" style="stop-color:#755CBB"/>
			</linearGradient>
			<path style="opacity:0.5;fill:url(#SVGID_45_);enable-background:new    ;" d="M-204.183,420.42c-16.04,1.63-20.36,6.1-20.36,6.1
				c-4.51,0.57-14.64-10.98-14.64-10.98l-1.32-1.52c0,0-8.15,18.57-15.54,27.66c-0.88,1.08-1.81,2.15-2.77,3.18l1.05-2.36
				c0,0,1.72-0.82,2.22-9.85c0.51-9.02-3.79-22.48-3.82-24.31s-0.66-11.09-0.66-11.09l13.71,8.18l-2.53-8.02l9.98,8.02
				c0,0,3.91,5.88,13.78,10.78C-215.773,420.84-205.333,420.47-204.183,420.42z"/>
			
				<linearGradient id="SVGID_46_" gradientUnits="userSpaceOnUse" x1="-228.27" y1="355.138" x2="-228.27" y2="391.228" gradientTransform="matrix(1 0 0 -1 0 804)">
				<stop  offset="0" style="stop-color:#CCEDFF"/>
				<stop  offset="1" style="stop-color:#755CBB"/>
			</linearGradient>
			<path style="opacity:0.5;fill:url(#SVGID_46_);enable-background:new    ;" d="M-240.503,414.02l9.556-1.248
				c0,0,3.821,2.531,11.487,5.651l-6.393,9.427c0,0,2.536,13.439,9.816,21.012c0,0-19.321-10.731-22.037-19.755L-240.503,414.02z"/>
			
				<linearGradient id="SVGID_47_" gradientUnits="userSpaceOnUse" x1="-285.308" y1="401.2727" x2="-285.308" y2="428.54" gradientTransform="matrix(1 0 0 -1 0 804)">
				<stop  offset="0" style="stop-color:#CCEDFF"/>
				<stop  offset="1" style="stop-color:#755CBB"/>
			</linearGradient>
			<path style="opacity:0.5;fill:url(#SVGID_47_);enable-background:new    ;" d="M-296.293,385.42l2.73,7.19
				c0,0,2.785,9.704,8.31,10.11s10.93-16.27,10.93-16.27v-10.99c0,0-5.878,12.603-12.226,14.024
				C-292.896,390.905-296.293,385.42-296.293,385.42z"/>
			
				<linearGradient id="SVGID_48_" gradientUnits="userSpaceOnUse" x1="-263.243" y1="425.284" x2="-252.254" y2="425.284" gradientTransform="matrix(1 0 0 -1 0 804)">
				<stop  offset="0" style="stop-color:#CCEDFF"/>
				<stop  offset="1" style="stop-color:#755CBB"/>
			</linearGradient>
			<path style="opacity:0.5;fill:url(#SVGID_48_);enable-background:new    ;" d="M-263.243,379.73c0,0,4.926,9.849,10.989,12.881
				c0,0-7.209-17.497-5.689-27.79C-257.943,364.82-260.593,366.47-263.243,379.73z"/>
			
				<linearGradient id="SVGID_49_" gradientUnits="userSpaceOnUse" x1="-143.7855" y1="359.14" x2="-143.7855" y2="409.68" gradientTransform="matrix(1 0 0 -1 0 804)">
				<stop  offset="0" style="stop-color:#CCCCFF"/>
				<stop  offset="1" style="stop-color:#755CBB"/>
			</linearGradient>
			<path style="opacity:0.76;fill:url(#SVGID_49_);enable-background:new    ;" d="M-143.493,394.32l1.7,5.49l1.725,45.05
				c0,0-4.368-8.571-7.435-20.81l1.593-2.45C-145.909,421.6-143.237,404.619-143.493,394.32z"/>
			
				<linearGradient id="SVGID_50_" gradientUnits="userSpaceOnUse" x1="-86.965" y1="370.01" x2="-86.965" y2="396.42" gradientTransform="matrix(1 0 0 -1 0 804)">
				<stop  offset="0" style="stop-color:#CCCCFF"/>
				<stop  offset="1" style="stop-color:#755CBB"/>
			</linearGradient>
			<path style="opacity:0.5;fill:url(#SVGID_50_);enable-background:new    ;" d="M-91.143,407.58c0,0-0.962,22.13,8.443,24.044
				l0.467,2.366C-82.233,433.99-94.4,433.539-91.143,407.58z"/>
			
				<linearGradient id="SVGID_51_" gradientUnits="userSpaceOnUse" x1="-116.917" y1="371.19" x2="-116.917" y2="391.38" gradientTransform="matrix(1 0 0 -1 0 804)">
				<stop  offset="0" style="stop-color:#CCCCFF"/>
				<stop  offset="1" style="stop-color:#755CBB"/>
			</linearGradient>
			<path style="opacity:0.3;fill:url(#SVGID_51_);enable-background:new    ;" d="M-106.833,414.31c0,0-0.36,0.793-3.78-1.69
				c0,0-11.831,8.379-16.388,20.19c0,0,7.292-10.851,11.172-12.025s4.817,3.156,4.817,3.156S-109.477,417.841-106.833,414.31z"/>
			
				<linearGradient id="SVGID_52_" gradientUnits="userSpaceOnUse" x1="-291.0158" y1="399.5324" x2="-291.0158" y2="407.03" gradientTransform="matrix(1 0 0 -1 0 804)">
				<stop  offset="0" style="stop-color:#CCEDFF"/>
				<stop  offset="1" style="stop-color:#755CBB"/>
			</linearGradient>
			<path style="opacity:0.5;fill:url(#SVGID_52_);enable-background:new    ;" d="M-297.543,396.97c0,0,4.552,8.39,13.078,5.757
				c0,0-5.109,3.444-10.228,0.643C-294.693,403.37-297.87,397.917-297.543,396.97z"/>
			
				<linearGradient id="SVGID_53_" gradientUnits="userSpaceOnUse" x1="-270.9868" y1="376.673" x2="-270.9868" y2="417.65" gradientTransform="matrix(1 0 0 -1 0 804)">
				<stop  offset="0" style="stop-color:#CCCCFF"/>
				<stop  offset="1" style="stop-color:#755CBB"/>
			</linearGradient>
			<path style="opacity:0.5;fill:url(#SVGID_53_);enable-background:new    ;" d="M-267.733,386.35c0,0,6.258,23.399-10.068,40.977
				c0,0,10.605-5.443,13.007-18.043C-262.391,396.684-267.733,386.35-267.733,386.35z"/>
			
				<linearGradient id="SVGID_54_" gradientUnits="userSpaceOnUse" x1="-165.563" y1="405.516" x2="-165.563" y2="436.352" gradientTransform="matrix(1 0 0 -1 0 804)">
				<stop  offset="0" style="stop-color:#CCEDFF"/>
				<stop  offset="1" style="stop-color:#755CBB"/>
			</linearGradient>
			<path style="opacity:0.5;fill:url(#SVGID_54_);enable-background:new    ;" d="M-155.593,367.648c0,0-0.705,10.562-5.767,18.141
				c-5.062,7.579-15.104,12.695-15.104,12.695s12.6-4.642,18.379-11.179C-152.306,380.768-155.593,367.648-155.593,367.648z"/>
			
				<linearGradient id="SVGID_55_" gradientUnits="userSpaceOnUse" x1="-205.9609" y1="409.685" x2="-205.9609" y2="452.244" gradientTransform="matrix(1 0 0 -1 0 804)">
				<stop  offset="0" style="stop-color:#CCEDFF"/>
				<stop  offset="1" style="stop-color:#755CBB"/>
			</linearGradient>
			<path style="opacity:0.5;fill:url(#SVGID_55_);enable-background:new    ;" d="M-220.043,351.756c0,0,0,8.832,2.842,17.832
				c2.842,9.001,27.512,24.727,27.512,24.727s-25.428-10.563-30.354-20.06C-224.97,364.758-220.043,351.756-220.043,351.756z"/>
			
				<linearGradient id="SVGID_56_" gradientUnits="userSpaceOnUse" x1="-220.332" y1="401.9002" x2="-149.247" y2="401.9002" gradientTransform="matrix(1 0 0 -1 0 804)">
				<stop  offset="0" style="stop-color:#8642A0"/>
				<stop  offset="1" style="stop-color:#6456C0"/>
			</linearGradient>
			<path style="fill:url(#SVGID_56_);" d="M-220.332,393.815V408.2c0,0,33.11-0.267,70.237,2.192l0.848-12.947
				C-149.247,397.445-181.524,393.618-220.332,393.815z"/>
			<g>
				<path style="fill:#EBEFFF;" d="M-214.193,397.096c0.007-0.245,0.125-0.365,0.355-0.358l6.708,0.204
					c0.664,0.02,1.226,0.121,1.687,0.303c0.462,0.182,0.832,0.431,1.109,0.747s0.474,0.695,0.592,1.137
					c0.118,0.442,0.169,0.934,0.152,1.474l-0.056,1.842c-0.016,0.541-0.097,1.028-0.241,1.462c-0.144,0.435-0.363,0.802-0.66,1.1
					c-0.296,0.298-0.681,0.524-1.153,0.679c-0.472,0.153-1.039,0.22-1.703,0.2l-3.611-0.11l-0.748-2.112l-0.098-0.003l-0.063,2.088
					l-2.531-0.077L-214.193,397.096z M-211.851,403.426l4.287,0.131c0.483,0.015,0.831-0.081,1.042-0.288
					c0.212-0.207,0.325-0.581,0.341-1.121l0.045-1.499c0.017-0.557-0.073-0.939-0.272-1.146c-0.198-0.206-0.54-0.317-1.023-0.332
					l-4.104-0.125c-0.057-0.001-0.103,0.016-0.137,0.051c-0.034,0.036-0.051,0.079-0.053,0.127L-211.851,403.426z"/>
				<path style="fill:#EBEFFF;" d="M-199.958,400.935l-0.086-0.003l-0.081,2.678c-0.003,0.114,0.051,0.174,0.166,0.177l7.543,0.23
					l-0.07,2.321l-9.89-0.3c-0.238-0.008-0.353-0.134-0.345-0.379l0.249-8.207c0.007-0.245,0.129-0.364,0.368-0.358l9.606,0.292
					c0.246,0.007,0.365,0.134,0.358,0.379l-0.071,2.322l-2.373,0.801l-0.099-0.003l0.036-1.191c0.003-0.09-0.037-0.137-0.119-0.139
					l-5.073-0.154c-0.065-0.003-0.109,0.015-0.131,0.051c-0.021,0.037-0.032,0.076-0.034,0.116l-0.034,1.118l4.177,0.126
					l-0.056,1.819l-3.502-0.106L-199.958,400.935z"/>
				<path style="fill:#EBEFFF;" d="M-183.193,400.767l-0.099-0.003l0.03-0.983c0.003-0.098-0.044-0.149-0.143-0.152l-4.718-0.144
					c-0.172-0.005-0.292,0.028-0.36,0.1c-0.068,0.072-0.105,0.177-0.108,0.316l-0.007,0.221c-0.005,0.172,0.02,0.284,0.076,0.335
					s0.166,0.091,0.329,0.121l5.529,0.942c0.351,0.06,0.647,0.146,0.891,0.255c0.242,0.11,0.439,0.251,0.59,0.424
					c0.15,0.173,0.255,0.383,0.312,0.631c0.059,0.247,0.083,0.539,0.072,0.875l-0.021,0.712c-0.011,0.369-0.066,0.693-0.165,0.973
					c-0.099,0.28-0.254,0.513-0.464,0.699c-0.21,0.187-0.485,0.324-0.824,0.411c-0.339,0.088-0.754,0.125-1.245,0.11l-7.961-0.242
					l0.07-2.321l7.137,0.217c0.213,0.006,0.356-0.028,0.428-0.105c0.072-0.075,0.11-0.211,0.116-0.408l0.007-0.245
					c0.005-0.156-0.018-0.266-0.069-0.328c-0.052-0.062-0.155-0.105-0.31-0.127l-5.336-0.838c-0.359-0.061-0.666-0.144-0.921-0.25
					c-0.254-0.105-0.462-0.243-0.621-0.412s-0.272-0.373-0.337-0.613c-0.067-0.24-0.094-0.523-0.084-0.851l0.019-0.626
					c0.02-0.647,0.206-1.143,0.561-1.489c0.355-0.346,0.934-0.506,1.737-0.482l7.948,0.241c0.254,0.008,0.377,0.143,0.369,0.404
					l-0.056,1.843L-183.193,400.767z"/>
				<path style="fill:#EBEFFF;" d="M-179.833,406.722l0.271-8.943l2.531,0.077l-0.271,8.943L-179.833,406.722z"/>
				<path style="fill:#EBEFFF;" d="M-167.91,403.247c0.004-0.131,0.002-0.268-0.007-0.412c-0.008-0.144-0.018-0.269-0.031-0.376
					l0.003-0.11l2.506,0.076l-0.133,4.386c-0.007,0.229-0.113,0.341-0.317,0.335l-6.732-0.204c-0.664-0.021-1.227-0.122-1.688-0.304
					s-0.83-0.431-1.108-0.747c-0.277-0.315-0.476-0.694-0.593-1.137c-0.117-0.441-0.168-0.934-0.151-1.474l0.056-1.843
					c0.017-0.54,0.097-1.028,0.241-1.462c0.143-0.434,0.364-0.8,0.66-1.099c0.297-0.298,0.681-0.524,1.152-0.678
					c0.472-0.154,1.039-0.221,1.703-0.201l6.694,0.203c0.237,0.007,0.354,0.134,0.346,0.379l-0.059,1.929l-2.373,0.789l-0.099-0.003
					l0.026-0.86c0.003-0.082-0.032-0.124-0.106-0.126l-4.274-0.13c-0.245-0.007-0.453,0.009-0.622,0.049
					c-0.17,0.04-0.31,0.113-0.42,0.221c-0.109,0.107-0.192,0.253-0.246,0.435c-0.055,0.183-0.087,0.41-0.096,0.68l-0.047,1.573
					c-0.017,0.54,0.074,0.92,0.272,1.14c0.199,0.22,0.54,0.336,1.023,0.351l4.238,0.129c0.09,0.002,0.136-0.045,0.139-0.144
					L-167.91,403.247z"/>
				<path style="fill:#EBEFFF;" d="M-160.089,398.37c0.188,0.006,0.32,0.039,0.397,0.098c0.075,0.06,0.145,0.152,0.206,0.276
					l3.196,6.528c0.054,0.1,0.13,0.151,0.229,0.154l0.135,0.005c0.131,0.004,0.199-0.059,0.203-0.191l0.204-6.732l2.297,0.07
					l-0.261,8.588c-0.007,0.237-0.125,0.353-0.355,0.345l-3.638-0.11c-0.171-0.005-0.299-0.033-0.383-0.085
					c-0.085-0.052-0.162-0.147-0.232-0.29l-3.318-6.52c-0.046-0.1-0.123-0.151-0.229-0.154l-0.123-0.004
					c-0.131-0.004-0.198,0.06-0.202,0.191l-0.204,6.72l-2.298-0.07l0.261-8.575c0.008-0.245,0.125-0.365,0.355-0.357
					L-160.089,398.37z"/>
			</g>
			
				<linearGradient id="SVGID_57_" gradientUnits="userSpaceOnUse" x1="-214.203" y1="442.92" x2="-167.943" y2="442.92" gradientTransform="matrix(1 0 0 -1 0 804)">
				<stop  offset="0" style="stop-color:#CCCCFF"/>
				<stop  offset="1" style="stop-color:#755CBB"/>
			</linearGradient>
			<path style="opacity:0.5;fill:url(#SVGID_57_);enable-background:new    ;" d="M-167.943,353.67c-0.78,9.3-3.61,15.78-6.63,20.15
				c-4.16,6-8.66,8.05-8.66,8.05c-4.5-1.96-8.4-4.4-11.76-7.09c-14.26-11.4-18.86-27.2-19.21-28.5
				c6.02,14.54,14.86,23.35,21.56,28.31c5.4,4.01,9.41,5.52,9.41,5.52v-4.65c-1.07-0.4-2.11-0.86-3.1-1.36
				c-11.8-5.95-18-18.35-20.9-26.37c-0.01-0.02-0.01-0.03-0.02-0.05c-1.57-4.34-2.18-7.39-2.18-7.39h2.14l-0.7,1.5l-0.03,0.05
				c0.34,1.52,0.73,2.98,1.17,4.37c0.01,0.04,0.02,0.08,0.04,0.11c6.6,20.82,23.58,27.53,23.58,27.53
				c11.8-8.71,11.57-22.54,11.57-22.54v-1.9l2.21,0.66L-167.943,353.67z"/>
			
				<linearGradient id="SVGID_58_" gradientUnits="userSpaceOnUse" x1="-95.2812" y1="373.022" x2="-95.2812" y2="399.793" gradientTransform="matrix(1 0 0 -1 0 804)">
				<stop  offset="0" style="stop-color:#CCCCFF"/>
				<stop  offset="1" style="stop-color:#755CBB"/>
			</linearGradient>
			<path style="opacity:0.3;fill:url(#SVGID_58_);enable-background:new    ;" d="M-97.941,404.207c0,0-3.208,10.477-0.176,26.771
				c0,0,1.516-20.653,2.653-22.453c1.137-1.8,4.322-0.946,4.322-0.946S-96.154,404.815-97.941,404.207z"/>
			
				<linearGradient id="SVGID_59_" gradientUnits="userSpaceOnUse" x1="-133.123" y1="342.82" x2="-133.123" y2="423.89" gradientTransform="matrix(1 0 0 -1 0 804)">
				<stop  offset="0" style="stop-color:#CCCCFF"/>
				<stop  offset="1" style="stop-color:#755CBB"/>
			</linearGradient>
			<path style="opacity:0.5;fill:url(#SVGID_59_);enable-background:new    ;" d="M-129.063,461.18c-2.8-2.45-6.16-6.54-9.51-13.24
				c-6.7-13.39-8.62-22.33-8.93-23.89l1.59-2.45l2.13-20.6l1.99-1.19c0,0,7.11-7.85,12.51-19.7c0.08,0.18,0.17,0.46,0.27,0.86v0.01
				c1.09,4.28,3.33,20.31,5.41,26.03c1.3,3.57,3.35,5.54,4.86,6.56c0,0-12.31,18.26-12.91,31.29
				C-132.183,456.72-129.543,460.58-129.063,461.18z"/>
			
				<linearGradient id="SVGID_60_" gradientUnits="userSpaceOnUse" x1="-220.283" y1="304.74" x2="-220.283" y2="327.98" gradientTransform="matrix(1 0 0 -1 0 804)">
				<stop  offset="0" style="stop-color:#CCCCFF"/>
				<stop  offset="1" style="stop-color:#755CBB"/>
			</linearGradient>
			<path style="opacity:0.5;fill:url(#SVGID_60_);enable-background:new    ;" d="M-202.153,499.26c0,0-22.19-3.64-31.25-9.48
				c0,0-0.01,0-0.01-0.01c0.09-0.5,0.13-0.99,0.11-1.48c-0.19-5-4.51-9.43-5.11-12.27c0.1,0.27,0.75,1.77,3.9,4.47
				c1.99,1.71,5,3.91,9.52,6.58c0.12,0.07,0.24,0.14,0.35,0.2c6.4,3.78,11.91,6.34,15.89,8.22c0.03,0.01,0.05,0.02,0.07,0.03
				c3.58,1.68,5.9,2.79,6.52,3.73C-202.153,499.25-202.153,499.26-202.153,499.26z"/>
			
				<linearGradient id="SVGID_61_" gradientUnits="userSpaceOnUse" x1="-175.138" y1="311.1239" x2="-175.138" y2="322.41" gradientTransform="matrix(1 0 0 -1 0 804)">
				<stop  offset="0" style="stop-color:#CCCCFF"/>
				<stop  offset="1" style="stop-color:#755CBB"/>
			</linearGradient>
			<path style="opacity:0.5;fill:url(#SVGID_61_);enable-background:new    ;" d="M-154.683,481.59c-0.12,0.86-2.08,2.75-2.64,4.81
				c0,0-8.14,8.62-38.27,5.97c0.2-0.85,6.53,0.38,21.21-2.56C-160.153,486.96-154.993,481.9-154.683,481.59z"/>
			<path style="opacity:0.5;fill:#7A4AC0;enable-background:new    ;" d="M-149.673,364.96l-19.26,6.24l-5.64,2.62l-0.03,0.01
				l-3.67,0.01l-4.96,0.01l-3.1,0.25l-1.64,0.12l-4.67,0.37l-2.35,0.19l-23.1-8.36l-4.13-1.49l-19-6.88
				c0.56-0.22,1.13-0.44,1.73-0.68c12.75-5.05,25.26-11.18,25.26-11.18l4.8-5.9h2.14c1.91-4.18,3.18-8.09,4-11.17l1.27-5.71
				c0.09-0.55,0.13-0.85,0.13-0.85l6.8,3.59l22.93,18.34c-0.02,1.25,0.02,2.37,0.09,3.32l0.33,2.31c0.06-0.45,0.08-0.71,0.08-0.71
				l2.21,0.66l1.51,3.6c0,0,2.56,3.98,12.7,8.44C-153.493,362.88-151.613,363.85-149.673,364.96z"/>
			<g>
				
					<linearGradient id="SVGID_62_" gradientUnits="userSpaceOnUse" x1="-175.6356" y1="456.1881" x2="-175.6356" y2="533.3951" gradientTransform="matrix(1 0 0 -1 0 804)">
					<stop  offset="0.016" style="stop-color:#FFC2A9"/>
					<stop  offset="1" style="stop-color:#FF9595"/>
				</linearGradient>
				<path style="fill:url(#SVGID_62_);" d="M-164.343,347.39c0,0-8.98,2.02-18.89-2.78c-9.91-4.8-18.24-18.95-18.75-22.48
					c-0.5-3.54,3.79-12.76,3.79-19.96c0-7.2-3.53-19.58,2.4-26.28c5.94-6.69,33.22-7.7,42.07,0.89c0,0,2.74,6.88,2.74,10.77
					c0,0.94-0.17,2.32-0.42,3.91c-0.08,0.59-0.19,1.22-0.29,1.87c-0.79,4.71-1.88,10.46-1.37,12.98c0.18,0.88,0.46,1.69,0.79,2.46
					v0.01c1.09,2.52,2.71,4.53,3,6.71C-148.893,318.34-152.713,338.55-164.343,347.39z"/>
				
					<linearGradient id="SVGID_63_" gradientUnits="userSpaceOnUse" x1="-204.4172" y1="487.3423" x2="-204.4172" y2="510.105" gradientTransform="matrix(1 0 0 -1 0 804)">
					<stop  offset="0.016" style="stop-color:#FFC2A9"/>
					<stop  offset="1" style="stop-color:#FF9595"/>
				</linearGradient>
				<path style="fill:url(#SVGID_63_);" d="M-198.266,300.137c0,0-2.451-6.147-8.609-6.242c0,0-3.6,1.421-4.168,4.169
					c0,0,1.326,9.947,2.842,14.589c1.516,4.642,7.074,3.971,7.074,3.971S-196.289,309.221-198.266,300.137z"/>
				
					<linearGradient id="SVGID_64_" gradientUnits="userSpaceOnUse" x1="-164.9034" y1="478.7345" x2="-163.949" y2="483.7037" gradientTransform="matrix(1 0 0 -1 0 804)">
					<stop  offset="0" style="stop-color:#E1616A"/>
					<stop  offset="1" style="stop-color:#FF8883"/>
				</linearGradient>
				<path style="fill:url(#SVGID_64_);" d="M-174.599,320.392c0,0,2.051-0.16,2.935,0.503s4.105,3.789,8.179,4.642
					s6.806-2.616,7.674-2.794c0.868-0.178,1.822,1.05,1.822,1.05s-0.374-1.417-2.495-2.063c0,0-0.859,3.267-6.763,2.149
					s-8.416-3.742-8.416-3.742l-0.3-0.537C-171.964,319.6-173.629,319.946-174.599,320.392z"/>
				
					<linearGradient id="SVGID_65_" gradientUnits="userSpaceOnUse" x1="-173.519" y1="482.537" x2="-173.519" y2="532.274" gradientTransform="matrix(1 0 0 -1 0 804)">
					<stop  offset="0" style="stop-color:#FFEADB"/>
					<stop  offset="0.9944" style="stop-color:#C27CB6"/>
				</linearGradient>
				<path style="opacity:0.6;fill:url(#SVGID_65_);enable-background:new    ;" d="M-183.313,289.799l0.08-0.632
					c0,0,5.89-10.336,17.543-10.62s14.285,7.018,14.285,7.018l2.158-3.277l-4.917-9.994l-34.237-0.568l-8.337,6.726l-1.053,16.466
					l3.706,21.739l9.019,4.806l2.546-2.258c-0.94-7.279-6.354-13.929-6.354-13.929l3.947-2.741c0,0,10.137,4.907,15.995,3.438
					c0,0,4.405-12.858,4.153-22.384C-164.78,283.589-179.796,285.811-183.313,289.799z"/>
				<path style="fill:#38368E;" d="M-183.834,290.564c0,0,0.568-3.723,6.853-5.213c6.999-1.659,12.686-3.062,12.686-3.062
					s-1.239,4.083-3.572,5.614c0,0-7.406-0.269-11.155,0.583C-182.771,289.338-183.834,290.564-183.834,290.564z"/>
				<path style="fill:#38368E;" d="M-151.405,285.565c0,0-3.554,2.74-5.97,9.277c0,0,2.321-3.032,4.453-2.984
					c1.461,0.033,1.227,1.475,1.227,1.475S-150.243,289.426-151.405,285.565z"/>
				
					<linearGradient id="SVGID_66_" gradientUnits="userSpaceOnUse" x1="-175.9425" y1="502.905" x2="-175.9425" y2="512.758" gradientTransform="matrix(1 0 0 -1 0 804)">
					<stop  offset="0" style="stop-color:#CF6074"/>
					<stop  offset="1" style="stop-color:#F37270"/>
				</linearGradient>
				<path style="fill:url(#SVGID_66_);" d="M-181.485,301.095c0,0,0.379-7.863,8.053-9.853c0,0,2.747,3.553,3.032,7.579
					C-170.401,298.821-174.475,298.063-181.485,301.095z"/>
				
					<linearGradient id="SVGID_67_" gradientUnits="userSpaceOnUse" x1="-156.2908" y1="499.779" x2="-156.2908" y2="508.353" gradientTransform="matrix(1 0 0 -1 0 804)">
					<stop  offset="0" style="stop-color:#CF6074"/>
					<stop  offset="1" style="stop-color:#FF817F"/>
				</linearGradient>
				<path style="fill:url(#SVGID_67_);" d="M-159.506,304.221c0,0,0.621-6.26,4.216-8.574c0,0,2.45,1.836,2.196,7.076
					C-153.094,302.723-155.243,301.947-159.506,304.221z"/>
				<path style="fill:#FFEBED;" d="M-181.485,301.095c0,0,2.495,3.063,9.474,3.663c0,0,1.33-2.024,1.202-5.985
					C-170.81,298.772-177.222,298.158-181.485,301.095z"/>
				<path style="fill:#FFEBED;" d="M-159.506,304.221v0.916c0,0,1.074,2.242,4.926,2.621c0,0,1.242-1.935,1.346-5.072
					C-153.234,302.686-155.685,302.074-159.506,304.221z"/>
				<path style="fill:#7F9EC9;" d="M-174.025,298.61c0,0-1.769,2.153-1.611,5.547c0,0,2.321,0.546,3.624,0.601
					c0,0,1.527-2.126,1.202-5.985C-170.81,298.772-172.839,298.336-174.025,298.61z"/>
				<path style="fill:#7F9EC9;" d="M-155.85,302.793c0,0-1.004,1.073-1.193,4.365c0,0,1.374,0.6,2.463,0.6
					c0,0,1.403-1.992,1.346-5.072C-153.234,302.686-154.213,302.313-155.85,302.793z"/>
				<path style="fill:#38368E;" d="M-174.599,304.393c0,0-0.634-4.249,1.798-5.873l1.991,0.253c0,0,0.661,3.364-1.202,5.985
					C-172.012,304.758-173.99,304.533-174.599,304.393z"/>
				<path style="fill:#38368E;" d="M-154.97,302.605c0,0-0.9,1.886-1.321,4.83c0,0,0.693,0.283,1.711,0.323
					c0,0,1.364-1.667,1.346-5.072C-153.234,302.686-154.271,302.41-154.97,302.605z"/>
				<path style="fill:#131163;" d="M-181.485,301.095c0,0,4.642-2.7,12.553-1.161l-1.468-1.113
					C-170.401,298.821-176.038,297.068-181.485,301.095z"/>
				<path style="fill:#131163;" d="M-159.506,304.221c0,0,3.722-1.976,8.063-0.931l-1.789-1.324
					C-153.232,301.966-156.143,301.521-159.506,304.221z"/>
				<path style="fill:#FFFFFF;" d="M-176.464,301.095c0,0,1.263-0.278,2.4,0.872C-174.064,301.966-175.621,302.424-176.464,301.095z
					"/>
				<path style="fill:#FFFFFF;" d="M-157.801,304.758c0,0,1.98-0.385,2.663,0.518C-155.138,305.276-156.196,306.004-157.801,304.758
					z"/>
				<path style="fill:#C6659C;" d="M-181.018,301.554c0,0,3.607,3.567,9.386,4.42l0.149-2.104l-0.528,0.889
					C-172.012,304.758-177.567,304.429-181.018,301.554z"/>
				<path style="fill:#C6659C;" d="M-159.506,305.137c0,0,0.642,2.305,5.342,3.347l-0.151-1.129l-0.264,0.402
					C-154.58,307.758-157.92,307.332-159.506,305.137z"/>
				<path style="fill:#CB5F7D;" d="M-168.933,314.358c0,0,1.753-0.379,4.974,0s6.843,1.263,8.821,0c0,0-2.629,2.632-4.906,3.032
					c-2.277,0.4-5.747-1.6-5.747-1.6l-1.516,0.026C-167.306,315.816-168.475,315.242-168.933,314.358z"/>
				<path style="fill:#9F4A8B;" d="M-167.085,315.812c0,0,0.789-0.507,1.452-0.38c0.663,0.126,1.338,1.092,1.338,1.092
					S-165.695,315.782-167.085,315.812z"/>
				<path style="fill:#FFBCAF;" d="M-155.138,314.358c0.842-0.821-3.516-8.583-5.6-8.871c-2.084-0.287-4.042,8.702-4.042,8.702
					s2.899,0.406,5.71,0.783C-156.259,315.349-155.138,314.358-155.138,314.358z"/>
				
					<linearGradient id="SVGID_68_" gradientUnits="userSpaceOnUse" x1="-155.4845" y1="494.79" x2="-155.4845" y2="514.0833" gradientTransform="matrix(1 0 0 -1 0 804)">
					<stop  offset="0" style="stop-color:#FFEADB"/>
					<stop  offset="0.9944" style="stop-color:#C27CB6"/>
				</linearGradient>
				<path style="opacity:0.6;fill:url(#SVGID_68_);enable-background:new    ;" d="M-152.023,289.92c-1.18-0.15-5.35,4.92-5.35,4.92
					s-2.65,8.21-2.13,10.64c0.52,2.44,6.96,3.73,6.96,3.73l0.27-0.43v-0.01c-0.33-0.77-0.61-1.58-0.79-2.46
					c-0.51-2.52,0.58-8.27,1.37-12.98c0,0,0.26-0.97,0.29-1.87C-151.373,290.7-151.483,289.98-152.023,289.92z"/>
				
					<linearGradient id="SVGID_69_" gradientUnits="userSpaceOnUse" x1="-174.5993" y1="455.2171" x2="-174.5993" y2="548.85" gradientTransform="matrix(1 0 0 -1 0 804)">
					<stop  offset="0" style="stop-color:#2E33A0"/>
					<stop  offset="1" style="stop-color:#0665A5"/>
				</linearGradient>
				<path style="fill:url(#SVGID_69_);" d="M-152.213,323.26c-1.33-2.78-0.51-4.23-12.06-5.74c-16.35-2.15-17.75,2.84-20.53,2.08
					c-0.1-0.03-0.22-0.07-0.33-0.12c-3.01-1.17-10.1-8.14-10.28-17.53c-0.19-9.76,6.35-16.68,6.35-16.68
					c-2.37-1.99-3.32-7.76-0.76-10.23c2.56-2.46,6.92-1.89,17.62-0.76c10.71,1.14,10.71,0.48,10.71,0.48
					c3.4,0.87,5.35,4.06,5.9,5.08c0.11,0.2,0.16,0.32,0.16,0.32l1.33-1.23c3.6,5.21,2.94,10.89,2.94,10.89s5.87-11.94,5.2-13.63
					c-1.22-3.12-4.61-7.67-4.82-7.96l-0.01-0.01c0,0-0.95-9.09-3.79-9.09s-14.97,2.74-14.97,2.74c1.33-3.12,1.14-6.72,1.14-6.72
					s-0.02,0.02-0.05,0.05c-3.96,3.55-7.83,3.94-13.31,6.48c-2.76,1.29-4.06,2.48-5.13,3.72l-0.37,0.44l-0.39,0.47
					c-0.38,0.48-0.77,0.97-1.24,1.47c-0.02,0.03-0.05,0.05-0.06,0.06c-0.02,0.02-0.03,0.03-0.03,0.03
					c-0.44,0.48-0.96,0.97-1.59,1.49c-3.6,2.93-11.52,4.89-12.47,7.99c-0.95,3.09,1.2,7.32,2.34,11.68
					c1.13,4.36,0.61,8.21,0.61,8.21s3.77,4.86,2.52,11.97c-1.11,6.37-3.54,7.41-3.54,7.41c-1.71,3.51-0.9,6.79-0.9,6.79
					c3.5,13.92,17.98,22.21,17.98,22.21c12.88,4.8,21.35,2.71,21.35,2.71s0,0,0.01-0.01c9.37-6.11,12.58-26.33,12.72-27.27
					C-150.123,321.3-151.863,324-152.213,323.26z M-157.993,336.15c-2.27-0.38-2.75-6.13-3.5-6.89c-0.76-0.75-4.87-0.44-4.87-0.44
					s-3.79,4.3-5.3,4.42c-1.52,0.13-9.6-3.16-7.85-8.08c1.74-4.93,7.85-5.56,7.85-5.56s3.16,2.65,7.89,2.96
					c4.74,0.31,6.45-0.56,7.01-0.81c0.57-0.26,3.62,1.13,3.54,5.43C-153.273,330.17-155.713,336.53-157.993,336.15z"/>
				<path style="fill:#D2726C;" d="M-158.581,307.214c0,0,4.083,5.07,3.693,6.976c-0.426,2.087-5.155,3.2-5.155,3.2
					s3.792-1.308,4.568-3.2C-155.475,314.189-156.449,310.348-158.581,307.214z"/>
				
					<linearGradient id="SVGID_70_" gradientUnits="userSpaceOnUse" x1="-150.0063" y1="514.18" x2="-150.0063" y2="535.78" gradientTransform="matrix(1 0 0 -1 0 804)">
					<stop  offset="0" style="stop-color:#FFEADB"/>
					<stop  offset="0.9944" style="stop-color:#8860C7"/>
				</linearGradient>
				<path style="opacity:0.6;fill:url(#SVGID_70_);enable-background:new    ;" d="M-151.163,289.82c0,0,0.66-5.68-2.94-10.89
					c2.89-5.16,3.31-10.71,3.31-10.71l0.01,0.01c0.98,2.41,1.54,7.1,1.54,7.1l3.28,0.86
					C-145.293,277.88-151.163,289.82-151.163,289.82z"/>
				
					<linearGradient id="SVGID_71_" gradientUnits="userSpaceOnUse" x1="-179.441" y1="455.2172" x2="-179.441" y2="548.85" gradientTransform="matrix(1 0 0 -1 0 804)">
					<stop  offset="0" style="stop-color:#CCC2DB"/>
					<stop  offset="0.9944" style="stop-color:#8860C7"/>
				</linearGradient>
				<path style="opacity:0.6;fill:url(#SVGID_71_);enable-background:new    ;" d="M-155.593,279.84c-0.55-1.02-2.5-4.21-5.9-5.08
					c0,0,0,0.66-10.71-0.48c-10.7-1.13-15.06-1.7-17.62,0.76c-2.56,2.47-1.61,8.24,0.76,10.23c0,0-6.54,6.92-6.35,16.68
					c0.18,9.39,7.27,16.36,10.28,17.53l-0.14,1.04c0,0,0.53,21.5,5.76,23.21c5.22,1.7,16.06,0.82,17.07,1.83
					c0.96,0.96-0.14,2.61-0.24,2.76c-0.01,0.01-0.01,0.01-0.01,0.01s-8.47,2.09-21.35-2.71c0,0-14.48-8.29-17.98-22.21
					c0,0-0.81-3.28,0.9-6.79c0,0,2.43-1.04,3.54-7.41c1.25-7.11-2.52-11.97-2.52-11.97s0.52-3.85-0.61-8.21
					c-1.14-4.36-3.29-8.59-2.34-11.68c6.06,0.95,10.04-2.21,10.04-2.21s1.06-1.47,5.75-2.23c4.69-0.76,23.54,1.14,23.54,1.14
					s-1.89-1.57-5.87-2.61c-3.76-0.99-16.6,0.16-17.98,0.27c1.47-0.26,16.03-2.76,17.69-2.26c1.76,0.52,8.06,3.41,8.06,3.41
					c-0.57-2.89-6.21-9.85-6.21-9.85s-7.96,0.14-13.17,1.23c-4.65,0.97-7.2,3.1-7.7,3.54l1.24-1.47l0.39-0.47l0.37-0.44l1.82-0.31
					l9.14-3.69c3.07-1.64,7-5.7,7.48-6.2c0.03-0.03,0.05-0.05,0.05-0.05s0.19,3.6-1.14,6.72c7.72-0.95,10.33-0.47,10.33-0.47
					C-155.713,266.37-155.593,279.84-155.593,279.84z"/>
				
					<linearGradient id="SVGID_72_" gradientUnits="userSpaceOnUse" x1="-173.1625" y1="455.2393" x2="-173.1625" y2="459.2622" gradientTransform="matrix(1 0 0 -1 0 804)">
					<stop  offset="0" style="stop-color:#776D7E"/>
					<stop  offset="1" style="stop-color:#9D68C2"/>
				</linearGradient>
				<path style="opacity:0.5;fill:url(#SVGID_72_);enable-background:new    ;" d="M-184.043,345.62c0,0,4.732-1.123,11.875-0.835
					c7.142,0.288,11.247,0.317,9.475,3.545C-162.693,348.33-171.663,350.356-184.043,345.62z"/>
				
					<linearGradient id="SVGID_73_" gradientUnits="userSpaceOnUse" x1="-161.3595" y1="542.13" x2="-161.3595" y2="545.1181" gradientTransform="matrix(1 0 0 -1 0 804)">
					<stop  offset="0" style="stop-color:#1F77D1"/>
					<stop  offset="1" style="stop-color:#0686C9"/>
				</linearGradient>
				<path style="fill:url(#SVGID_73_);" d="M-159.223,261.4c0,0,4.342-1.694,6.056-1.415c0,0-0.679-0.906-1.389-1.095
					c-0.71-0.189-14.996,2.98-14.996,2.98S-160.644,260.832-159.223,261.4z"/>
				
					<linearGradient id="SVGID_74_" gradientUnits="userSpaceOnUse" x1="-180.3995" y1="532.29" x2="-180.3995" y2="541.1265" gradientTransform="matrix(1 0 0 -1 0 804)">
					<stop  offset="0" style="stop-color:#1F77D1"/>
					<stop  offset="1" style="stop-color:#0686C9"/>
				</linearGradient>
				<path style="fill:url(#SVGID_74_);" d="M-168.033,263.01c0,0-0.341,4.728-1.85,6.44l-17.69,2.26l-5.193-0.915
					c0,0,2.009-0.858,4.217-3.435C-186.34,264.783-174.806,262.252-168.033,263.01z"/>
				
					<linearGradient id="SVGID_75_" gradientUnits="userSpaceOnUse" x1="-148.378" y1="527.81" x2="-148.378" y2="535.78" gradientTransform="matrix(1 0 0 -1 0 804)">
					<stop  offset="0" style="stop-color:#1F77D1"/>
					<stop  offset="1" style="stop-color:#0686C9"/>
				</linearGradient>
				<path style="fill:url(#SVGID_75_);" d="M-150.793,268.22c0,0,1.44,4.65,1.55,7.11l3.28,0.86
					C-145.963,276.19-146.958,272.672-150.793,268.22z"/>
				
					<linearGradient id="SVGID_76_" gradientUnits="userSpaceOnUse" x1="-201.1031" y1="492.7387" x2="-211.2981" y2="505.229" gradientTransform="matrix(1 0 0 -1 0 804)">
					<stop  offset="0" style="stop-color:#FFEADB"/>
					<stop  offset="0.9944" style="stop-color:#B060F4"/>
				</linearGradient>
				<path style="opacity:0.8;fill:url(#SVGID_76_);enable-background:new    ;" d="M-198.996,308.484c0,0-1.243-5.968-4.293-8.921
					c-3.049-2.953-6.523-2.005-6.523-2.005s0.947,11.068,1.942,13.768c0.995,2.7,2.51,3.41,2.51,3.41s-2.132-1.867-2.416-5.528
					s-0.379-8.825,0.426-9.44s4.06,1.786,4.06,1.786s-1.028,1.259-1.644,4.521s1.658,5.63,2.51,5.583
					c0.853-0.047-0.047-3.774,0.095-4.847C-202.185,305.737-200.291,305.974-198.996,308.484z"/>
				
					<linearGradient id="SVGID_77_" gradientUnits="userSpaceOnUse" x1="-200.035" y1="494.3471" x2="-205.0514" y2="500.4928" gradientTransform="matrix(1 0 0 -1 0 804)">
					<stop  offset="0" style="stop-color:#FFEADB"/>
					<stop  offset="0.9944" style="stop-color:#B060F4"/>
				</linearGradient>
				<path style="opacity:0.8;fill:url(#SVGID_77_);enable-background:new    ;" d="M-202.038,301.065c0,0-3.329,2.188-2.97,6.674
					c0.359,4.487,2.923,4.29,2.932,3.349c0.008-0.942-0.488-3.366-0.228-4.738c0.261-1.372,2.474-0.751,2.474-0.751
					S-201.287,302.038-202.038,301.065z"/>
				<path style="fill:#34C7FF;" d="M-149.963,321.05c0,0-4.137,18.873-12.73,27.28C-162.693,348.33-152.893,344.479-149.963,321.05z
					"/>
				<path style="fill:#34C7FF;" d="M-154.556,258.889c0,0,2.182,1.696,2.597,7.595c0.415,5.898-2.144,12.446-2.144,12.446
					s3.281-4.898,3.596-10.267C-150.191,263.295-152.827,259.568-154.556,258.889z"/>
			</g>
			
				<linearGradient id="SVGID_78_" gradientUnits="userSpaceOnUse" x1="-180.99" y1="531.4995" x2="-163.724" y2="531.4995" gradientTransform="matrix(1 0 0 -1 0 804)">
				<stop  offset="0" style="stop-color:#1F77D1"/>
				<stop  offset="1" style="stop-color:#0686C9"/>
			</linearGradient>
			<path style="fill:url(#SVGID_78_);" d="M-180.99,271.24c0,0,5.049,1.722,10.588,2.211c5.54,0.489,6.678,0.599,6.678,0.599
				s-2.226-2.16-6.968-2.81C-175.433,270.59-180.99,271.24-180.99,271.24z"/>
			
				<linearGradient id="SVGID_79_" gradientUnits="userSpaceOnUse" x1="-156.635" y1="479.8611" x2="-151.398" y2="479.8611" gradientTransform="matrix(1 0 0 -1 0 804)">
				<stop  offset="0" style="stop-color:#1F77D1"/>
				<stop  offset="1" style="stop-color:#0686C9"/>
			</linearGradient>
			<path style="fill:url(#SVGID_79_);" d="M-156.588,321.463c0,0,2.416,0,3.367,3.032c0.758,2.417,0.967,4.5,0.967,4.5l0.856-3.323
				c0,0-1.116-4.208-2.277-5.156c-0.836-0.682-2.275-1.375-2.96-1.208L-156.588,321.463z"/>
			
				<linearGradient id="SVGID_80_" gradientUnits="userSpaceOnUse" x1="-163.101" y1="483.7551" x2="-157.452" y2="483.7551" gradientTransform="matrix(1 0 0 -1 0 804)">
				<stop  offset="0" style="stop-color:#1F77D1"/>
				<stop  offset="1" style="stop-color:#0686C9"/>
			</linearGradient>
			<path style="fill:url(#SVGID_80_);" d="M-163.101,318.432l0.408,3.6c0,0,2.944,0.237,4.892-0.569l0.349-2.179
				C-157.453,319.284-161.206,318.337-163.101,318.432z"/>
			<path style="fill:#34C7FF;" d="M-149.673,364.96c0,0,17.225,12.582,19.462,16.91c2.237,4.327,3.141,17.903,6.165,23.776
				c0,0-2.066-9.608-3.517-17.142c-1.45-7.534-1.102-7.641-1.907-9.488C-130.275,377.168-143.142,368.241-149.673,364.96z"/>
			<path style="fill:#34C7FF;" d="M-152.759,435.003c0,0-8.304,35.542-7.926,37.944s5.752,7.299,6.003,8.643
				c0,0-4.108,5.503-3.918,6.72s7.199,8.924,7.011,11.306c-0.055,0.692-4.602,8.194-4.602,8.194s5.139-7.374,5.392-8.55
				c0.253-1.176-6.296-11.026-6.488-12.027c-0.498-2.591,3.267-4.496,3.394-6.201c0.126-1.705-5.095-5.872-5.137-8.652
				C-159.075,469.6-152.759,435.003-152.759,435.003z"/>
			<path style="fill:#34C7FF;" d="M-151.073,519.73c0,0,17.95,40.635,24.072,81.27C-127.001,601-128.023,561.344-151.073,519.73z"/>
			<path style="fill:#FFBCAF;" d="M-264.883,356.8c0,0-4.645-0.993-6.571-5.044c-1.926-4.051-0.669-9.916-0.669-9.916
				s3.636,6.975,5.447,9.357C-264.864,353.579-264.378,356.295-264.883,356.8z"/>
		</g>
	</g>
	<g>
		<defs>
			<rect id="SVGID_81_" x="-473.233" y="201" width="600" height="400"/>
		</defs>
		<clipPath id="SVGID_82_">
			<use xlink:href="#SVGID_81_"  style="overflow:visible;"/>
		</clipPath>
		<g style="clip-path:url(#SVGID_82_);">
			<path style="opacity:0.6;fill:#36D1F7;enable-background:new    ;" d="M-121.575,335.615l3.22,91.796
				c0.128,3.641,3.117,6.527,6.76,6.527H46.537c3.673,0,6.675-2.931,6.762-6.603l2.213-92.869c0.091-3.815-2.99-6.95-6.807-6.925
				l-163.565,1.074C-118.67,328.639-121.708,331.806-121.575,335.615z"/>
			<g>
				<path style="fill:#744CA2;" d="M46.537,434.188h-158.132c-3.797,0-6.876-2.973-7.01-6.769l-3.22-91.795
					c-0.067-1.91,0.625-3.721,1.947-5.101c1.323-1.38,3.105-2.146,5.016-2.159l163.565-1.074c1.9,0.008,3.707,0.732,5.049,2.098
					c1.342,1.365,2.056,3.17,2.01,5.084l-2.213,92.869C53.458,431.18,50.378,434.188,46.537,434.188z M48.752,327.79
					c-0.015,0-0.029,0-0.044,0l-163.565,1.074c-1.775,0.012-3.43,0.724-4.658,2.005c-1.229,1.281-1.871,2.963-1.809,4.737
					l3.22,91.795c0.124,3.525,2.983,6.286,6.51,6.286H46.538c3.507,0,6.429-2.852,6.513-6.359l2.213-92.869
					c0.042-1.777-0.62-3.454-1.866-4.721C52.16,328.481,50.512,327.79,48.752,327.79z"/>
			</g>
			
				<linearGradient id="SVGID_83_" gradientUnits="userSpaceOnUse" x1="-121.4371" y1="470.0541" x2="55.622" y2="470.0541" gradientTransform="matrix(1 0 0 -1 0 804)">
				<stop  offset="0" style="stop-color:#9D68C2"/>
				<stop  offset="1" style="stop-color:#AEC2FF"/>
			</linearGradient>
			<path style="opacity:0.6;fill:url(#SVGID_83_);enable-background:new    ;" d="M-121.339,340.29H55.325l0.284-4.841
				c0.251-4.281-3.171-7.881-7.459-7.847l-163.502,1.292c-3.414,0.027-6.148,2.836-6.084,6.249L-121.339,340.29z"/>
			
				<linearGradient id="SVGID_84_" gradientUnits="userSpaceOnUse" x1="-85.419" y1="403.18" x2="-85.419" y2="456.583" gradientTransform="matrix(1 0 0 -1 0 804)">
				<stop  offset="0" style="stop-color:#CCEDFF"/>
				<stop  offset="1" style="stop-color:#9D68C2"/>
			</linearGradient>
			<polygon style="opacity:0.3;fill:url(#SVGID_84_);enable-background:new    ;" points="-112.457,347.696 -112.457,400.82 
				-58.381,400.82 -58.381,347.417 			"/>
			
				<linearGradient id="SVGID_85_" gradientUnits="userSpaceOnUse" x1="5.6405" y1="429.216" x2="5.6405" y2="452.739" gradientTransform="matrix(1 0 0 -1 0 804)">
				<stop  offset="0" style="stop-color:#CCEDFF"/>
				<stop  offset="1" style="stop-color:#9D68C2"/>
			</linearGradient>
			
				<rect x="-6.121" y="351.261" style="opacity:0.3;fill:url(#SVGID_85_);enable-background:new    ;" width="23.523" height="23.523"/>
			
				<linearGradient id="SVGID_86_" gradientUnits="userSpaceOnUse" x1="33.3935" y1="429.216" x2="33.3935" y2="452.739" gradientTransform="matrix(1 0 0 -1 0 804)">
				<stop  offset="0" style="stop-color:#CCEDFF"/>
				<stop  offset="1" style="stop-color:#9D68C2"/>
			</linearGradient>
			
				<rect x="21.632" y="351.261" style="opacity:0.3;fill:url(#SVGID_86_);enable-background:new    ;" width="23.523" height="23.523"/>
			
				<linearGradient id="SVGID_87_" gradientUnits="userSpaceOnUse" x1="-22.5765" y1="429.216" x2="-22.5765" y2="452.739" gradientTransform="matrix(1 0 0 -1 0 804)">
				<stop  offset="0" style="stop-color:#CCEDFF"/>
				<stop  offset="1" style="stop-color:#9D68C2"/>
			</linearGradient>
			
				<rect x="-34.338" y="351.261" style="opacity:0.3;fill:url(#SVGID_87_);enable-background:new    ;" width="23.523" height="23.523"/>
			<rect x="-14.999" y="388.498" style="fill:#D1D4FB;" width="60.153" height="5.635"/>
			<rect x="-30.043" y="397.073" style="fill:#D1D4FB;" width="75.198" height="1.744"/>
			<rect x="-29.335" y="377.783" style="fill:#D1D4FB;" width="14.386" height="1.744"/>
			<rect x="-1.553" y="377.783" style="fill:#D1D4FB;" width="14.386" height="1.744"/>
			<rect x="26.2" y="377.783" style="fill:#D1D4FB;" width="14.386" height="1.744"/>
			<rect x="-34.338" y="399.907" style="fill:#D1D4FB;" width="24.19" height="1.744"/>
			<rect x="-30.043" y="402.708" style="fill:#D1D4FB;" width="75.198" height="1.744"/>
			<rect x="-34.338" y="405.509" style="fill:#D1D4FB;" width="79.493" height="1.744"/>
			<rect x="-34.338" y="408.31" style="fill:#D1D4FB;" width="79.493" height="1.744"/>
			<rect x="-30.043" y="419.633" style="fill:#D1D4FB;" width="75.198" height="1.744"/>
			<rect x="-34.338" y="422.434" style="fill:#D1D4FB;" width="79.493" height="1.744"/>
			<rect x="-34.338" y="425.235" style="fill:#D1D4FB;" width="79.493" height="1.744"/>
			<rect x="-34.338" y="411.111" style="fill:#D1D4FB;" width="76.295" height="1.744"/>
			<rect x="-30.043" y="413.911" style="fill:#D1D4FB;" width="75.198" height="1.744"/>
			<rect x="-34.338" y="416.712" style="fill:#D1D4FB;" width="64.406" height="1.744"/>
			<g>
				<path style="fill:#E0FFFF;" d="M-97.306,390.167c-8.483,0-15.384-6.901-15.384-15.383s6.901-15.384,15.384-15.384
					c8.482,0,15.383,6.901,15.383,15.384C-81.923,383.266-88.824,390.167-97.306,390.167z M-97.306,360.4
					c-7.932,0-14.384,6.453-14.384,14.384s6.452,14.383,14.384,14.383c7.931,0,14.383-6.452,14.383-14.383
					C-82.923,366.852-89.375,360.4-97.306,360.4z"/>
			</g>
			<circle style="fill:#FFFFFF;" cx="-97.306" cy="374.783" r="8.36"/>
			<g>
				<path style="fill:#E0FFFF;" d="M-58.38,362.801c-8.482,0-15.384-6.901-15.384-15.383s6.901-15.384,15.384-15.384
					s15.383,6.901,15.383,15.384C-42.997,355.9-49.898,362.801-58.38,362.801z M-58.38,333.034c-7.932,0-14.384,6.453-14.384,14.384
					s6.452,14.383,14.384,14.383c7.931,0,14.383-6.452,14.383-14.383C-43.997,339.486-50.45,333.034-58.38,333.034z"/>
			</g>
			<circle style="fill:#FFFFFF;" cx="-58.381" cy="347.417" r="7.867"/>
			<g>
				<polygon style="fill:#FFFFFF;" points="-115.149,333.081 -114.025,331.377 -107.947,336.704 -108.879,338.003 				"/>
				<polygon style="fill:#FFFFFF;" points="-107.791,333.081 -108.915,331.377 -114.993,336.704 -114.061,338.003 				"/>
			</g>
			<rect x="-3.391" y="332.534" style="fill:#FFFFFF;" width="54.442" height="2.729"/>
		</g>
	</g>
	<g>
		<defs>
			<rect id="SVGID_88_" x="-473.233" y="201" width="600" height="400"/>
		</defs>
		<clipPath id="SVGID_89_">
			<use xlink:href="#SVGID_88_"  style="overflow:visible;"/>
		</clipPath>
		<g style="clip-path:url(#SVGID_89_);">
			
				<linearGradient id="SVGID_90_" gradientUnits="userSpaceOnUse" x1="-275.5645" y1="487.013" x2="-275.5645" y2="511.635" gradientTransform="matrix(1 0 0 -1 0 804)">
				<stop  offset="0" style="stop-color:#D93DE3"/>
				<stop  offset="1" style="stop-color:#FF6DBA"/>
			</linearGradient>
			<polygon style="fill:url(#SVGID_90_);" points="-289.883,293.123 -289.883,316.746 -261.627,316.987 -261.246,292.365 			"/>
			
				<linearGradient id="SVGID_91_" gradientUnits="userSpaceOnUse" x1="-260.5145" y1="487.013" x2="-260.5145" y2="511.635" gradientTransform="matrix(1 0 0 -1 0 804)">
				<stop  offset="0" style="stop-color:#A242EA"/>
				<stop  offset="1" style="stop-color:#FE117E"/>
			</linearGradient>
			<polygon style="fill:url(#SVGID_91_);" points="-261.246,292.365 -259.402,295.469 -260.324,316.965 -261.627,316.987 			"/>
			<polygon style="fill:#FFFFFF;" points="-284.838,301.096 -282.228,297.308 -268.118,309.151 -270.282,312.038 			"/>
			<polygon style="fill:#FFFFFF;" points="-267.756,301.096 -270.365,297.308 -284.475,309.151 -282.311,312.038 			"/>
		</g>
	</g>
	<g>
		<defs>
			<rect id="SVGID_92_" x="-473.233" y="201" width="600" height="400"/>
		</defs>
		<clipPath id="SVGID_93_">
			<use xlink:href="#SVGID_92_"  style="overflow:visible;"/>
		</clipPath>
		<g style="clip-path:url(#SVGID_93_);">
			
				<linearGradient id="SVGID_94_" gradientUnits="userSpaceOnUse" x1="-279.8369" y1="227.6298" x2="-266.522" y2="333.6435" gradientTransform="matrix(1 0 0 -1 0 804)">
				<stop  offset="0" style="stop-color:#067EFF"/>
				<stop  offset="1" style="stop-color:#3E37A0"/>
			</linearGradient>
			<path style="opacity:0.81;fill:url(#SVGID_94_);enable-background:new    ;" d="M-223.963,571.181h-96.689
				c-4.303,0-7.819-3.436-7.917-7.738l-1.805-79.306c-0.101-4.443,3.473-8.099,7.917-8.099h100.669c4.458,0,8.038,3.679,7.916,8.136
				l-2.175,79.306C-216.165,567.766-219.674,571.181-223.963,571.181z"/>
			<g>
				<path style="fill:#473DA2;" d="M-223.963,571.431h-96.689c-4.403,0-8.066-3.581-8.167-7.982l-1.805-79.306
					c-0.05-2.217,0.775-4.312,2.325-5.898c1.55-1.585,3.624-2.458,5.841-2.458h100.669c2.224,0,4.304,0.878,5.855,2.473
					c1.551,1.594,2.372,3.696,2.311,5.92l-2.175,79.307C-215.92,567.941-219.507,571.431-223.963,571.431z M-322.457,476.287
					c-2.081,0-4.029,0.819-5.483,2.308c-1.455,1.489-2.231,3.455-2.183,5.536l1.805,79.306c0.094,4.133,3.533,7.494,7.667,7.494
					h96.689c4.184,0,7.551-3.276,7.666-7.458l2.175-79.307c0.057-2.087-0.713-4.061-2.169-5.558
					c-1.456-1.497-3.409-2.321-5.497-2.321L-322.457,476.287L-322.457,476.287z"/>
			</g>
			<g>
				<rect x="-304.31" y="492.258" style="fill:#FFFFFF;" width="50.85" height="2.177"/>
				<rect x="-304.31" y="497.554" style="fill:#FFFFFF;" width="25.425" height="2.177"/>
				<rect x="-304.31" y="501.975" style="fill:#FFFFFF;" width="25.425" height="2.177"/>
				<rect x="-276.033" y="501.975" style="fill:#FFFFFF;" width="20.228" height="2.177"/>
				<rect x="-304.31" y="506.396" style="fill:#FFFFFF;" width="40.989" height="2.177"/>
				<rect x="-304.31" y="510.817" style="fill:#FFFFFF;" width="14.589" height="2.177"/>
				<rect x="-286.721" y="524.08" style="fill:#FFFFFF;" width="25.232" height="2.177"/>
				<rect x="-304.31" y="515.238" style="fill:#FFFFFF;" width="45.726" height="2.177"/>
				<rect x="-304.31" y="519.659" style="fill:#FFFFFF;" width="35.179" height="2.177"/>
				<rect x="-304.31" y="524.08" style="fill:#FFFFFF;" width="16.547" height="2.177"/>
				<rect x="-304.31" y="528.501" style="fill:#FFFFFF;" width="25.425" height="2.177"/>
				<rect x="-304.31" y="532.922" style="fill:#FFFFFF;" width="7.295" height="2.177"/>
				<rect x="-294.016" y="532.922" style="fill:#FFFFFF;" width="26.463" height="2.177"/>
				<rect x="-286.721" y="537.213" style="fill:#FFFFFF;" width="25.232" height="2.177"/>
				<rect x="-304.31" y="537.213" style="fill:#FFFFFF;" width="16.547" height="2.177"/>
				<rect x="-304.31" y="541.634" style="fill:#FFFFFF;" width="25.425" height="2.177"/>
				<rect x="-304.31" y="546.055" style="fill:#FFFFFF;" width="7.295" height="2.177"/>
				<rect x="-294.016" y="546.055" style="fill:#FFFFFF;" width="26.463" height="2.177"/>
			</g>
		</g>
	</g>
	<g>
		<defs>
			<rect id="SVGID_95_" x="-473.233" y="201" width="600" height="400"/>
		</defs>
		<clipPath id="SVGID_96_">
			<use xlink:href="#SVGID_95_"  style="overflow:visible;"/>
		</clipPath>
		
			<linearGradient id="SVGID_97_" gradientUnits="userSpaceOnUse" x1="31.016" y1="489.691" x2="31.016" y2="498.629" gradientTransform="matrix(1 0 0 -1 0 804)">
			<stop  offset="0" style="stop-color:#459FFF"/>
			<stop  offset="1" style="stop-color:#A96DFF"/>
		</linearGradient>
		<circle style="clip-path:url(#SVGID_96_);fill:url(#SVGID_97_);" cx="31.016" cy="309.84" r="4.469"/>
	</g>
	<g>
		<defs>
			<rect id="SVGID_98_" x="-473.233" y="201" width="600" height="400"/>
		</defs>
		<clipPath id="SVGID_99_">
			<use xlink:href="#SVGID_98_"  style="overflow:visible;"/>
		</clipPath>
		
			<linearGradient id="SVGID_100_" gradientUnits="userSpaceOnUse" x1="-388.977" y1="384.961" x2="-388.977" y2="396.085" gradientTransform="matrix(1 0 0 -1 0 804)">
			<stop  offset="0" style="stop-color:#459FFF"/>
			<stop  offset="1" style="stop-color:#A96DFF"/>
		</linearGradient>
		<circle style="clip-path:url(#SVGID_99_);fill:url(#SVGID_100_);" cx="-388.977" cy="413.477" r="5.562"/>
	</g>
	<g>
		<defs>
			<rect id="SVGID_101_" x="-473.233" y="201" width="600" height="400"/>
		</defs>
		<clipPath id="SVGID_102_">
			<use xlink:href="#SVGID_101_"  style="overflow:visible;"/>
		</clipPath>
		
			<linearGradient id="SVGID_103_" gradientUnits="userSpaceOnUse" x1="44.141" y1="489.691" x2="44.141" y2="498.629" gradientTransform="matrix(1 0 0 -1 0 804)">
			<stop  offset="0" style="stop-color:#B31A8F"/>
			<stop  offset="1" style="stop-color:#FE117E"/>
		</linearGradient>
		<circle style="clip-path:url(#SVGID_102_);fill:url(#SVGID_103_);" cx="44.141" cy="309.84" r="4.469"/>
	</g>
	<g>
		<defs>
			<rect id="SVGID_104_" x="-473.233" y="201" width="600" height="400"/>
		</defs>
		<clipPath id="SVGID_105_">
			<use xlink:href="#SVGID_104_"  style="overflow:visible;"/>
		</clipPath>
		
			<linearGradient id="SVGID_106_" gradientUnits="userSpaceOnUse" x1="-244.029" y1="460.274" x2="-244.029" y2="466.594" gradientTransform="matrix(1 0 0 -1 0 804)">
			<stop  offset="0" style="stop-color:#B31A8F"/>
			<stop  offset="1" style="stop-color:#FE117E"/>
		</linearGradient>
		<circle style="clip-path:url(#SVGID_105_);fill:url(#SVGID_106_);" cx="-244.029" cy="340.566" r="3.16"/>
	</g>
	<g>
		<defs>
			<rect id="SVGID_107_" x="-473.233" y="201" width="600" height="400"/>
		</defs>
		<clipPath id="SVGID_108_">
			<use xlink:href="#SVGID_107_"  style="overflow:visible;"/>
		</clipPath>
		
			<linearGradient id="SVGID_109_" gradientUnits="userSpaceOnUse" x1="-32.373" y1="320.837" x2="-32.373" y2="327.157" gradientTransform="matrix(1 0 0 -1 0 804)">
			<stop  offset="0" style="stop-color:#8642A0"/>
			<stop  offset="1" style="stop-color:#6456C0"/>
		</linearGradient>
		<circle style="clip-path:url(#SVGID_108_);fill:url(#SVGID_109_);" cx="-32.373" cy="480.003" r="3.16"/>
	</g>
	<g>
		<defs>
			<rect id="SVGID_110_" x="-473.233" y="201" width="600" height="400"/>
		</defs>
		<clipPath id="SVGID_111_">
			<use xlink:href="#SVGID_110_"  style="overflow:visible;"/>
		</clipPath>
		
			<linearGradient id="SVGID_112_" gradientUnits="userSpaceOnUse" x1="-360.894" y1="289.667" x2="-360.894" y2="295.317" gradientTransform="matrix(1 0 0 -1 0 804)">
			<stop  offset="0" style="stop-color:#8642A0"/>
			<stop  offset="1" style="stop-color:#6456C0"/>
		</linearGradient>
		<circle style="clip-path:url(#SVGID_111_);fill:url(#SVGID_112_);" cx="-360.894" cy="511.508" r="2.825"/>
	</g>
	<g>
		<defs>
			<rect id="SVGID_113_" x="-473.233" y="201" width="600" height="400"/>
		</defs>
		<clipPath id="SVGID_114_">
			<use xlink:href="#SVGID_113_"  style="overflow:visible;"/>
		</clipPath>
		<g style="clip-path:url(#SVGID_114_);">
			
				<linearGradient id="SVGID_115_" gradientUnits="userSpaceOnUse" x1="-337.1889" y1="320.229" x2="-337.1889" y2="366.892" gradientTransform="matrix(1 0 0 -1 0 804)">
				<stop  offset="0" style="stop-color:#D906E3"/>
				<stop  offset="1" style="stop-color:#FF6DF9"/>
			</linearGradient>
			<path style="opacity:0.73;fill:url(#SVGID_115_);enable-background:new    ;" d="M-312.739,483.771h-48.799
				c-3.927,0-7.147-3.113-7.279-7.038l-1.083-32.096c-0.139-4.116,3.16-7.529,7.279-7.529h50.864c4.11,0,7.405,3.398,7.28,7.506
				l-0.981,32.096C-305.579,480.645-308.803,483.771-312.739,483.771z"/>
			<g>
				<path style="fill:#953DA2;" d="M-312.739,484.022h-48.799c-4.084,0-7.391-3.197-7.529-7.279l-1.083-32.096
					c-0.069-2.06,0.681-4.01,2.114-5.491c1.432-1.482,3.355-2.297,5.416-2.297h50.864c2.056,0,3.976,0.812,5.407,2.288
					c1.432,1.477,2.185,3.421,2.123,5.476l-0.981,32.097C-305.334,480.814-308.642,484.022-312.739,484.022z M-362.621,437.358
					c-1.923,0-3.719,0.762-5.056,2.145s-2.038,3.204-1.973,5.126l1.083,32.096c0.129,3.811,3.216,6.797,7.029,6.797h48.799
					c3.825,0,6.913-2.995,7.03-6.818l0.981-32.097c0.059-1.918-0.645-3.733-1.982-5.111c-1.336-1.378-3.129-2.137-5.048-2.137
					h-50.863V437.358z"/>
			</g>
			<g>
				<polygon style="fill:#FFFFFF;" points="-348.528,448.64 -360.559,462.586 -348.307,472.987 -348.307,467.619 -355.395,461.483 
					-348.812,454.04 				"/>
			</g>
			<g>
				<polygon style="fill:#FFFFFF;" points="-327.378,449.266 -315.347,463.213 -327.599,473.614 -327.599,468.245 -320.511,462.109 
					-328.399,453.762 				"/>
			</g>
			<g>
				<polygon style="fill:#FFFFFF;" points="-345.907,472.987 -335.423,449.893 -330.496,449.893 -342.37,472.987 				"/>
			</g>
		</g>
	</g>
	<g>
		<defs>
			<rect id="SVGID_116_" x="-473.233" y="201" width="600" height="400"/>
		</defs>
		<clipPath id="SVGID_117_">
			<use xlink:href="#SVGID_116_"  style="overflow:visible;"/>
		</clipPath>
		<g style="clip-path:url(#SVGID_117_);">
			
				<linearGradient id="SVGID_118_" gradientUnits="userSpaceOnUse" x1="-14.998" y1="254.178" x2="-14.998" y2="312.553" gradientTransform="matrix(1 0 0 -1 0 804)">
				<stop  offset="0" style="stop-color:#D906E3"/>
				<stop  offset="1" style="stop-color:#FF6DF9"/>
			</linearGradient>
			<path style="opacity:0.73;fill:url(#SVGID_118_);enable-background:new    ;" d="M15.589,549.822h-61.047
				c-4.912,0-8.94-3.894-9.106-8.804l-1.355-40.152c-0.174-5.15,3.954-9.419,9.106-9.419h63.63c5.141,0,9.264,4.251,9.107,9.39
				l-1.227,40.152C24.545,545.91,20.512,549.822,15.589,549.822z"/>
			<g>
				<path style="fill:#953DA2;" d="M15.589,550.071h-61.047c-5.075,0-9.185-3.974-9.355-9.045l-1.355-40.151
					c-0.086-2.56,0.847-4.982,2.626-6.823c1.779-1.841,4.17-2.854,6.729-2.854h63.63c2.555,0,4.941,1.01,6.719,2.843
					c1.779,1.834,2.716,4.251,2.639,6.805l-1.228,40.151C24.791,546.085,20.68,550.071,15.589,550.071z M-46.814,491.697
					c-2.423,0-4.686,0.96-6.37,2.702s-2.567,4.036-2.485,6.458l1.355,40.151c0.161,4.802,4.051,8.562,8.855,8.562h61.047
					c4.819,0,8.71-3.773,8.857-8.591l1.228-40.151c0.073-2.417-0.814-4.705-2.497-6.44c-1.684-1.735-3.942-2.691-6.36-2.691H-46.814
					z"/>
			</g>
			<rect x="-43.687" y="497.911" style="fill:#D1D4FB;" width="55.911" height="33.206"/>
			<polygon style="fill:#FFFFFF;" points="-20.682,506.151 -20.682,522.878 -6.395,513.749 			"/>
			<rect x="-43.687" y="537.237" style="fill:#D1D4FB;" width="55.911" height="3.036"/>
			<rect x="-43.687" y="537.237" style="fill:#FFFFFF;" width="14.474" height="3.036"/>
		</g>
	</g>
	<g>
		<defs>
			<rect id="SVGID_119_" x="-473.233" y="201" width="600" height="400"/>
		</defs>
		<clipPath id="SVGID_120_">
			<use xlink:href="#SVGID_119_"  style="overflow:visible;"/>
		</clipPath>
		<g style="clip-path:url(#SVGID_120_);">
			<g>
				
					<linearGradient id="SVGID_121_" gradientUnits="userSpaceOnUse" x1="-31.1997" y1="440.722" x2="-36.1737" y2="483.4133" gradientTransform="matrix(0.9656 0.26 0.26 -0.9656 -175.2011 950.8507)">
					<stop  offset="0" style="stop-color:#1852A0"/>
					<stop  offset="1" style="stop-color:#067ED3"/>
				</linearGradient>
				<path style="fill:url(#SVGID_121_);" d="M-84.648,487.415l-2.917,8.349C-85.955,491.15-83.636,488.156-84.648,487.415z
					 M-87.565,495.764l-2.924,8.347C-89.753,503.891-89.183,500.376-87.565,495.764z M-84.648,487.415l-2.917,8.349
					C-85.955,491.15-83.636,488.156-84.648,487.415z M-87.565,495.764l-2.924,8.347C-89.753,503.891-89.183,500.376-87.565,495.764z
					 M-79.141,502.996l2.835,1.607l3.059-8.352l-3.279-0.549c0.058-0.31,0.117-0.62,0.158-0.927
					c0.235-1.432,0.319-2.831,0.277-4.162l3.429-2.152l-1.562-7.357l-3.286,3.143c-0.457-0.942-1.021-1.763-1.68-2.45
					c-0.18-0.199-0.373-0.385-0.569-0.555l2.01-4.64l-5.348-1.741l0,0l-1.284,4.677c-1.196,0.004-2.413,0.303-3.621,0.847
					l-0.59-4.421l-5.888,4.457l1.36,3.918c-1.061,1.21-2.032,2.612-2.873,4.182l-2.837-1.6l-3.059,8.352l3.279,0.549
					c-0.349,1.761-0.483,3.472-0.434,5.089l-3.429,2.152l1.562,7.357l3.286-3.143c0.587,1.203,1.342,2.217,2.252,2.996l-2.012,4.648
					l5.264,2.052l0.815-2.964l0.553-2.024c1.196-0.004,2.421-0.301,3.629-0.845l0.582,4.419l5.888-4.456l-1.36-3.918
					c0.833-0.954,1.614-2.022,2.317-3.204C-79.504,503.659-79.324,503.331-79.141,502.996z M-87.565,495.764
					c-1.618,4.612,0.001,9.368-2.924,8.347c-2.931-1.032-4-5.598-2.384-10.202c1.618-4.612,5.299-7.515,8.225-6.493
					C-81.715,488.439-85.955,491.15-87.565,495.764z M-84.648,487.415l-2.917,8.349C-85.955,491.15-83.636,488.156-84.648,487.415z
					 M-87.565,495.764l-2.924,8.347C-89.753,503.891-89.183,500.376-87.565,495.764z"/>
			</g>
			
				<linearGradient id="SVGID_122_" gradientUnits="userSpaceOnUse" x1="-36.0219" y1="440.5587" x2="-36.0219" y2="484.3043" gradientTransform="matrix(0.9656 0.26 0.26 -0.9656 -175.2011 950.8507)">
				<stop  offset="0" style="stop-color:#1852A0"/>
				<stop  offset="1" style="stop-color:#067ED3"/>
			</linearGradient>
			<path style="fill:url(#SVGID_122_);" d="M-76.307,504.603l3.059-8.352l-3.121-1.476l-0.505-0.236l0.328-4.6l3.464-1.691
				l-1.143-7.144l-7.546-2.457l1.39,3.315l2.63-5.359l-5.348-1.741l-2.197-0.717l-5.271-2.055l-0.985,3.596l-4.586-2.179
				l-5.888,4.457l1.786,4.818l-5.506,15.264l-2.72,9.914l5.228,0.572l-1.702,3.929l5.271,2.055l7.545,2.458l-1.211-2.424
				l-0.763-1.451l2.789,0.91l4.764,1.55l5.888-4.456l-3.642-4.29l4.598-2.832L-76.307,504.603z M-92.873,493.908
				c1.618-4.612,5.299-7.515,8.225-6.493l-2.917,8.349l-2.924,8.347C-93.42,503.079-94.489,498.512-92.873,493.908z"/>
			<g>
				
					<linearGradient id="SVGID_123_" gradientUnits="userSpaceOnUse" x1="-68.4608" y1="479.0923" x2="-71.678" y2="506.7053" gradientTransform="matrix(0.9438 0.3306 0.5202 -1.4851 -285.3898 1248.4714)">
					<stop  offset="0" style="stop-color:#188DC1"/>
					<stop  offset="1" style="stop-color:#06BFE7"/>
				</linearGradient>
				<path style="fill:url(#SVGID_123_);" d="M-83.851,502.141l3.058-8.352l-3.28-0.548c0.346-1.756,0.484-3.466,0.437-5.083
					l3.43-2.151l-1.564-7.358l-3.288,3.141c-0.583-1.203-1.338-2.219-2.25-3.001l2.012-4.643l-5.269-2.054l-1.365,4.986
					c-1.195,0.005-2.416,0.302-3.624,0.845l-0.584-4.416l-5.888,4.454l1.356,3.917c-1.059,1.21-2.029,2.618-2.873,4.188
					l-2.837-1.601l-3.058,8.352l3.28,0.548c-0.346,1.756-0.484,3.466-0.437,5.083l-3.43,2.151l1.564,7.358l3.288-3.141
					c0.583,1.203,1.338,2.219,2.25,3.001l-2.012,4.643l5.269,2.053l1.365-4.986c1.195-0.005,2.416-0.302,3.623-0.845l0.584,4.416
					l5.888-4.454l-1.356-3.918c1.059-1.21,2.029-2.617,2.873-4.188L-83.851,502.141z M-98.039,501.649
					c-2.929-1.026-3.995-5.594-2.38-10.204c1.615-4.609,5.298-7.514,8.227-6.488s3.995,5.594,2.38,10.204
					C-91.426,499.77-95.11,502.675-98.039,501.649z"/>
			</g>
			<polygon style="opacity:0.5;fill:#601734;enable-background:new    ;" points="-72.662,488.461 -80.207,486.006 -83.637,488.157 
				-76.091,490.613 			"/>
			<polygon style="fill:#B3D9FF;" points="-80.656,511.104 -88.206,508.645 -89.561,504.727 -82.016,507.186 			"/>
			<polygon style="opacity:0.5;fill:#601734;enable-background:new    ;" points="-87.308,478.788 -83.17,479.985 -81.77,478.648 
				-79.024,479.542 -77.751,476.603 -85.296,474.145 			"/>
			<path style="opacity:0.5;fill:#601734;enable-background:new    ;" d="M-98.301,509.528l3.953,1.645l-0.329-2.49
				C-94.678,508.683-96.803,509.806-98.301,509.528z"/>
			<path style="opacity:0.5;fill:#601734;enable-background:new    ;" d="M-97.691,486.904l6.654,3.519c0,0,0.965-1.293,1.711-1.812
				C-89.325,488.61-91.06,481.273-97.691,486.904z"/>
		</g>
	</g>
	<g>
		<defs>
			<rect id="SVGID_124_" x="-473.233" y="201" width="600" height="400"/>
		</defs>
		<clipPath id="SVGID_125_">
			<use xlink:href="#SVGID_124_"  style="overflow:visible;"/>
		</clipPath>
		<polygon style="clip-path:url(#SVGID_125_);fill:#FF1D9C;" points="-250.445,237.963 -244.029,250.813 -248.315,252.762 
			-254.313,240.958 		"/>
	</g>
	<g>
		<defs>
			<rect id="SVGID_126_" x="-473.233" y="201" width="600" height="400"/>
		</defs>
		<clipPath id="SVGID_127_">
			<use xlink:href="#SVGID_126_"  style="overflow:visible;"/>
		</clipPath>
		<polygon style="clip-path:url(#SVGID_127_);fill:#6877FF;" points="-394.894,537.304 -388.957,543.819 -386.626,541.13 
			-392.231,534.96 		"/>
	</g>
	<g>
		<defs>
			<rect id="SVGID_128_" x="-473.233" y="201" width="600" height="400"/>
		</defs>
		<clipPath id="SVGID_129_">
			<use xlink:href="#SVGID_128_"  style="overflow:visible;"/>
		</clipPath>
		<polygon style="clip-path:url(#SVGID_129_);fill:#4F31E0;" points="-93.118,316.368 -99.099,319.997 -101.495,315.453 
			-94.957,311.635 		"/>
	</g>
	<g>
		<defs>
			<rect id="SVGID_130_" x="-473.233" y="201" width="600" height="400"/>
		</defs>
		<clipPath id="SVGID_131_">
			<use xlink:href="#SVGID_130_"  style="overflow:visible;"/>
		</clipPath>
		<polygon style="clip-path:url(#SVGID_131_);fill:#4F31E0;" points="-63.675,546.084 -72.245,552.169 -74.641,547.625 
			-66.321,542.767 		"/>
	</g>
	<g>
		<defs>
			<rect id="SVGID_132_" x="-473.233" y="201" width="600" height="400"/>
		</defs>
		<clipPath id="SVGID_133_">
			<use xlink:href="#SVGID_132_"  style="overflow:visible;"/>
		</clipPath>
		<g style="clip-path:url(#SVGID_133_);">
			
				<linearGradient id="SVGID_134_" gradientUnits="userSpaceOnUse" x1="-60.8816" y1="514.9028" x2="-49.5501" y2="556.9861" gradientTransform="matrix(1 0 0 -1 0 804)">
				<stop  offset="0" style="stop-color:#188DC1"/>
				<stop  offset="1" style="stop-color:#06BFE7"/>
			</linearGradient>
			<polygon style="fill:url(#SVGID_134_);" points="-74.995,285.297 -76.443,251.639 -32.373,251.639 -34.185,285.201 			"/>
			
				<linearGradient id="SVGID_135_" gradientUnits="userSpaceOnUse" x1="-80.3593" y1="519.7575" x2="-71.909" y2="551.1401" gradientTransform="matrix(1 0 0 -1 0 804)">
				<stop  offset="0" style="stop-color:#1852A0"/>
				<stop  offset="1" style="stop-color:#067ED3"/>
			</linearGradient>
			<polygon style="fill:url(#SVGID_135_);" points="-76.443,251.639 -77.763,253.624 -76.443,285.297 -74.995,285.297 			"/>
			<polygon style="fill:#FFFFFF;" points="-61.81,258.36 -68.726,257.619 -67.778,280.682 -61.81,280.096 -61.81,277.709 
				-65.268,277.791 -65.663,260.006 -61.81,260.116 			"/>
			<polygon style="fill:#FFFFFF;" points="-47.647,258.36 -40.731,257.619 -41.679,280.682 -47.647,280.096 -47.647,277.709 
				-44.189,277.791 -43.795,260.006 -47.647,260.116 			"/>
		</g>
	</g>
	<g>
		<defs>
			<rect id="SVGID_136_" x="-473.233" y="201" width="600" height="400"/>
		</defs>
		<clipPath id="SVGID_137_">
			<use xlink:href="#SVGID_136_"  style="overflow:visible;"/>
		</clipPath>
		<g style="clip-path:url(#SVGID_137_);">
			
				<linearGradient id="SVGID_138_" gradientUnits="userSpaceOnUse" x1="-1167.308" y1="442.4293" x2="-1159.5831" y2="471.118" gradientTransform="matrix(-1 0 0 -1 -1555.8094 804)">
				<stop  offset="0" style="stop-color:#188DC1"/>
				<stop  offset="1" style="stop-color:#06BFE7"/>
			</linearGradient>
			<polygon style="fill:url(#SVGID_138_);" points="-378.88,358.98 -377.893,336.035 -407.936,336.035 -406.701,358.915 			"/>
			
				<linearGradient id="SVGID_139_" gradientUnits="userSpaceOnUse" x1="-1180.5864" y1="445.7389" x2="-1174.8258" y2="467.1328" gradientTransform="matrix(-1 0 0 -1 -1555.8094 804)">
				<stop  offset="0" style="stop-color:#1852A0"/>
				<stop  offset="1" style="stop-color:#067ED3"/>
			</linearGradient>
			<polygon style="fill:url(#SVGID_139_);" points="-377.893,336.035 -376.993,337.388 -377.893,358.98 -378.88,358.98 			"/>
			<path style="fill:#FFFFFF;" d="M-389.466,340.651c0,0,3.294-0.126,3.875,0.141c0.581,0.268-0.151,5.635-0.151,5.635l1.313,1.206
				l-1.227,1.19c0,0,0.065,5.441-0.71,5.893c-0.775,0.452-3.423,0-3.423,0v-1.356c0,0,2.164,0.136,2.519-0.155
				c0.355-0.291,0.323-5.044,0.323-5.044l0.581-0.635l-0.581-0.689c0,0,0.108-3.388,0.043-4.318
				c-0.043-0.619-2.562-0.651-2.562-0.651S-389.466,340.651-389.466,340.651z"/>
			<path style="fill:#FFFFFF;" d="M-397.012,340.651c0,0-3.294-0.126-3.875,0.141c-0.581,0.268,0.151,5.635,0.151,5.635
				l-1.313,1.206l1.227,1.19c0,0-0.065,5.441,0.71,5.893c0.775,0.452,3.423,0,3.423,0v-1.356c0,0-2.164,0.136-2.519-0.155
				c-0.355-0.291-0.323-5.044-0.323-5.044l-0.581-0.635l0.581-0.689c0,0-0.108-3.388-0.043-4.318
				c0.043-0.619,2.562-0.651,2.562-0.651S-397.012,340.651-397.012,340.651z"/>
		</g>
	</g>
	<g>
		<defs>
			<rect id="SVGID_140_" x="-473.233" y="201" width="600" height="400"/>
		</defs>
		<clipPath id="SVGID_141_">
			<use xlink:href="#SVGID_140_"  style="overflow:visible;"/>
		</clipPath>
		<g style="clip-path:url(#SVGID_141_);">
			<g>
				<path style="fill:#744CA2;" d="M-125.374,288.331l-7.362-19.268l19.093,3.988L-125.374,288.331z M-131.944,269.739l6.718,17.578
					l10.701-13.939L-131.944,269.739z"/>
			</g>
			<g>
				
					<rect x="-69.833" y="551.484" transform="matrix(-0.8065 -0.5912 0.5912 -0.8065 -454.98 965.0052)" style="fill:#744CA2;" width="0.499" height="10.938"/>
			</g>
			<g>
				
					<rect x="-142.156" y="475.434" transform="matrix(-0.6263 -0.7796 0.7796 -0.6263 -593.0087 667.0997)" style="fill:#744CA2;" width="11.089" height="0.5"/>
			</g>
			<g>
				
					<rect x="-363.001" y="535.383" transform="matrix(-0.8094 -0.5872 0.5872 -0.8094 -955.8619 761.0577)" style="fill:#744CA2;" width="17.129" height="0.5"/>
			</g>
			<g>
				
					<rect x="-354.692" y="527.09" transform="matrix(-0.7955 -0.606 0.606 -0.7955 -960.9908 746.9708)" style="fill:#744CA2;" width="0.5" height="17.13"/>
			</g>
			<g>
				
					<rect x="-379.456" y="390.534" transform="matrix(-0.8852 -0.4651 0.4651 -0.8852 -887.5735 562.5867)" style="fill:#744CA2;" width="10.138" height="0.5"/>
			</g>
			<g>
				
					<rect x="-20.437" y="258.408" transform="matrix(-0.7506 -0.6607 0.6607 -0.7506 -211.2728 452.8077)" style="fill:#744CA2;" width="0.5" height="15.731"/>
			</g>
			<g>
				
					<rect x="-229.749" y="305.497" transform="matrix(-0.4454 -0.8953 0.8953 -0.4454 -598.3054 240.8892)" style="fill:#744CA2;" width="10.406" height="0.5"/>
			</g>
			<g>
				
					<rect x="-294.581" y="455.204" transform="matrix(-0.6416 -0.767 0.767 -0.6416 -838.2931 534.2703)" style="fill:#744CA2;" width="0.499" height="15.543"/>
			</g>
		</g>
	</g>
</g>
</svg>
